<mxfile host="app.diagrams.net" modified="2024-05-10T14:35:02.736Z" agent="Mozilla/5.0 (Windows NT 10.0; Win64; x64) AppleWebKit/537.36 (KHTML, like Gecko) Chrome/124.0.0.0 Safari/537.36" etag="H74uu6tCStgk_Mn_pc5y" version="24.3.1" type="google">
  <diagram name="PÃ¡gina-1" id="j2jgrMRJPueGA2hRwbMS">
    <mxGraphModel dx="5382" dy="738" grid="1" gridSize="10" guides="1" tooltips="1" connect="1" arrows="1" fold="1" page="1" pageScale="1" pageWidth="827" pageHeight="1169" math="0" shadow="0">
      <root>
        <mxCell id="0" />
        <mxCell id="1" parent="0" />
        <mxCell id="Gsc03Vrimq-xFtg_UPyv-206" value="" style="group" vertex="1" connectable="0" parent="1">
          <mxGeometry x="-2484" width="1070" height="620" as="geometry" />
        </mxCell>
        <mxCell id="Gsc03Vrimq-xFtg_UPyv-66" value="" style="rounded=0;whiteSpace=wrap;html=1;" vertex="1" parent="Gsc03Vrimq-xFtg_UPyv-206">
          <mxGeometry width="1070" height="620" as="geometry" />
        </mxCell>
        <mxCell id="Gsc03Vrimq-xFtg_UPyv-2" value="&lt;font color=&quot;#4284f3&quot; style=&quot;font-size: 31px;&quot;&gt;Arquitetura Globo&lt;/font&gt;" style="text;strokeColor=none;fillColor=none;html=1;fontSize=24;fontStyle=1;verticalAlign=middle;align=center;movable=1;resizable=1;rotatable=1;deletable=1;editable=1;locked=0;connectable=1;" vertex="1" parent="Gsc03Vrimq-xFtg_UPyv-206">
          <mxGeometry x="12" y="16" width="288.0013677097036" height="76.28443427699932" as="geometry" />
        </mxCell>
        <mxCell id="Gsc03Vrimq-xFtg_UPyv-3" value="" style="shape=image;verticalLabelPosition=bottom;labelBackgroundColor=default;verticalAlign=top;aspect=fixed;imageAspect=0;image=https://i.pinimg.com/736x/0d/01/9c/0d019cdac45e9730b4a833b4aef8bc6d.jpg;" vertex="1" parent="Gsc03Vrimq-xFtg_UPyv-206">
          <mxGeometry x="954.8645203755502" y="18.041559431894004" width="77.00036567238602" height="77.00036567238602" as="geometry" />
        </mxCell>
        <mxCell id="Gsc03Vrimq-xFtg_UPyv-4" value="" style="rounded=1;whiteSpace=wrap;html=1;rotation=90;strokeColor=#4284F3;fillColor=none;fillStyle=zigzag-line;movable=1;resizable=1;rotatable=1;deletable=1;editable=1;locked=0;connectable=1;" vertex="1" parent="Gsc03Vrimq-xFtg_UPyv-206">
          <mxGeometry x="-50.00025169657738" y="222.54847011724328" width="256.00121574195873" height="121.24678295682011" as="geometry" />
        </mxCell>
        <mxCell id="Gsc03Vrimq-xFtg_UPyv-5" value="" style="rounded=1;whiteSpace=wrap;html=1;rotation=90;strokeColor=#4284F3;fillColor=none;fillStyle=zigzag-line;movable=1;resizable=1;rotatable=1;deletable=1;editable=1;locked=0;connectable=1;" vertex="1" parent="Gsc03Vrimq-xFtg_UPyv-206">
          <mxGeometry x="107.64049693452534" y="222.54847011724328" width="255.29121237017438" height="121.24678295682011" as="geometry" />
        </mxCell>
        <mxCell id="Gsc03Vrimq-xFtg_UPyv-6" value="" style="rounded=1;whiteSpace=wrap;html=1;rotation=90;strokeColor=#4284F3;fillColor=none;movable=1;resizable=1;rotatable=1;deletable=1;editable=1;locked=0;connectable=1;" vertex="1" parent="Gsc03Vrimq-xFtg_UPyv-206">
          <mxGeometry x="261.2212262847206" y="220.02249547230954" width="260.36123644756395" height="126.2987322466876" as="geometry" />
        </mxCell>
        <mxCell id="Gsc03Vrimq-xFtg_UPyv-7" value="" style="rounded=1;whiteSpace=wrap;html=1;rotation=90;strokeColor=#4284F3;fillColor=none;movable=1;resizable=1;rotatable=1;deletable=1;editable=1;locked=0;connectable=1;" vertex="1" parent="Gsc03Vrimq-xFtg_UPyv-206">
          <mxGeometry x="549.1125934720353" y="78.81040892193307" width="270.02128232282695" height="408.7229053474406" as="geometry" />
        </mxCell>
        <mxCell id="Gsc03Vrimq-xFtg_UPyv-8" value="" style="rounded=1;whiteSpace=wrap;html=1;rotation=90;strokeColor=#4284F3;fillColor=none;movable=1;resizable=1;rotatable=1;deletable=1;editable=1;locked=0;connectable=1;" vertex="1" parent="Gsc03Vrimq-xFtg_UPyv-206">
          <mxGeometry x="855.4040480408034" y="220.02249547230954" width="275.91131029439" height="126.2987322466876" as="geometry" />
        </mxCell>
        <mxCell id="Gsc03Vrimq-xFtg_UPyv-9" value="" style="rounded=1;whiteSpace=wrap;html=1;rotation=90;strokeColor=#4284F3;fillColor=none;movable=1;resizable=1;rotatable=1;deletable=1;editable=1;locked=0;connectable=1;" vertex="1" parent="Gsc03Vrimq-xFtg_UPyv-206">
          <mxGeometry x="857.5040580136865" y="411.8349061099991" width="90.00042740928237" height="251.37489276522726" as="geometry" />
        </mxCell>
        <mxCell id="Gsc03Vrimq-xFtg_UPyv-10" value="" style="rounded=1;whiteSpace=wrap;html=1;rotation=90;strokeColor=#4284F3;fillColor=none;movable=1;resizable=1;rotatable=1;deletable=1;editable=1;locked=0;connectable=1;" vertex="1" parent="Gsc03Vrimq-xFtg_UPyv-206">
          <mxGeometry x="610.492884965166" y="433.7098465351253" width="90.00042740928237" height="207.64521971213415" as="geometry" />
        </mxCell>
        <mxCell id="Gsc03Vrimq-xFtg_UPyv-11" value="&lt;font color=&quot;#4284f3&quot; style=&quot;font-size: 16px;&quot;&gt;Data Sources&lt;/font&gt;" style="text;strokeColor=none;fillColor=none;html=1;fontSize=24;fontStyle=1;verticalAlign=middle;align=center;movable=1;resizable=1;rotatable=1;deletable=1;editable=1;locked=0;connectable=1;" vertex="1" parent="Gsc03Vrimq-xFtg_UPyv-206">
          <mxGeometry x="24.430101770899" y="107.61662377275758" width="110.00052238912289" height="28.290916023258024" as="geometry" />
        </mxCell>
        <mxCell id="Gsc03Vrimq-xFtg_UPyv-12" value="&lt;font color=&quot;#4284f3&quot; style=&quot;font-size: 16px;&quot;&gt;Ingestion&lt;br&gt;&lt;/font&gt;&lt;div&gt;&lt;span style=&quot;font-size: 16px;&quot;&gt;&lt;font color=&quot;#4284f3&quot;&gt;Near RealTime&lt;/font&gt;&lt;/span&gt;&lt;/div&gt;" style="text;strokeColor=none;fillColor=none;html=1;fontSize=24;fontStyle=1;verticalAlign=middle;align=center;movable=1;resizable=1;rotatable=1;deletable=1;editable=1;locked=0;connectable=1;" vertex="1" parent="Gsc03Vrimq-xFtg_UPyv-206">
          <mxGeometry x="334.80157571555446" y="106.10103898579732" width="110.00052238912289" height="31.32208559717853" as="geometry" />
        </mxCell>
        <mxCell id="Gsc03Vrimq-xFtg_UPyv-13" value="&lt;font style=&quot;font-size: 16px;&quot;&gt;&lt;font color=&quot;#4284f3&quot;&gt;Analytics Layer&lt;/font&gt;&lt;br&gt;&lt;/font&gt;" style="text;strokeColor=none;fillColor=none;html=1;fontSize=24;fontStyle=1;verticalAlign=middle;align=center;movable=1;resizable=1;rotatable=1;deletable=1;editable=1;locked=0;connectable=1;" vertex="1" parent="Gsc03Vrimq-xFtg_UPyv-206">
          <mxGeometry x="938.5944431094499" y="104.58545419883707" width="110.00052238912289" height="34.35325517109903" as="geometry" />
        </mxCell>
        <mxCell id="Gsc03Vrimq-xFtg_UPyv-14" value="&lt;div style=&quot;&quot;&gt;&lt;font style=&quot;font-size: 12px;&quot;&gt;&lt;br&gt;&lt;/font&gt;&lt;/div&gt;&lt;div style=&quot;&quot;&gt;&lt;font style=&quot;font-size: 12px;&quot;&gt;&lt;br&gt;&lt;/font&gt;&lt;/div&gt;&lt;div style=&quot;&quot;&gt;&lt;font style=&quot;font-size: 12px;&quot;&gt;&lt;br&gt;&lt;/font&gt;&lt;/div&gt;&lt;div style=&quot;&quot;&gt;&lt;font style=&quot;font-size: 12px;&quot;&gt;&lt;br&gt;&lt;/font&gt;&lt;/div&gt;&lt;div style=&quot;&quot;&gt;&lt;font style=&quot;font-size: 12px;&quot;&gt;API&lt;/font&gt;&lt;/div&gt;" style="aspect=fixed;sketch=0;html=1;dashed=0;whitespace=wrap;fillColor=#2875E2;strokeColor=#ffffff;points=[[0.005,0.63,0],[0.1,0.2,0],[0.9,0.2,0],[0.5,0,0],[0.995,0.63,0],[0.72,0.99,0],[0.5,1,0],[0.28,0.99,0]];shape=mxgraph.kubernetes.icon2;kubernetesLabel=1;prIcon=api;movable=1;resizable=1;rotatable=1;deletable=1;editable=1;locked=0;connectable=1;" vertex="1" parent="Gsc03Vrimq-xFtg_UPyv-206">
          <mxGeometry x="218.00102103328572" y="196.17729482413478" width="37.500178087200986" height="36.00017096371295" as="geometry" />
        </mxCell>
        <mxCell id="Gsc03Vrimq-xFtg_UPyv-15" value="Bronze" style="html=1;verticalLabelPosition=bottom;align=center;labelBackgroundColor=#ffffff;verticalAlign=top;strokeWidth=2;strokeColor=#994C00;shadow=0;dashed=0;shape=mxgraph.ios7.icons.data;movable=1;resizable=1;rotatable=1;deletable=1;editable=1;locked=0;connectable=1;" vertex="1" parent="Gsc03Vrimq-xFtg_UPyv-206">
          <mxGeometry x="611.7128907589363" y="179.53617386331143" width="24.00011397580863" height="29.402344867028873" as="geometry" />
        </mxCell>
        <mxCell id="Gsc03Vrimq-xFtg_UPyv-16" value="" style="endArrow=classic;html=1;rounded=0;entryX=0.476;entryY=0.141;entryDx=0;entryDy=0;exitX=0.472;exitY=1.012;exitDx=0;exitDy=0;exitPerimeter=0;movable=1;resizable=1;rotatable=1;deletable=1;editable=1;locked=0;connectable=1;strokeColor=#4284F3;edgeStyle=orthogonalEdgeStyle;strokeWidth=2;entryPerimeter=0;" edge="1" parent="Gsc03Vrimq-xFtg_UPyv-206" source="Gsc03Vrimq-xFtg_UPyv-15" target="Gsc03Vrimq-xFtg_UPyv-61">
          <mxGeometry width="50" height="50" relative="1" as="geometry">
            <mxPoint x="592.8928013829063" y="283.36383566866834" as="sourcePoint" />
            <mxPoint x="630.8979818683483" y="279.2313411495566" as="targetPoint" />
          </mxGeometry>
        </mxCell>
        <mxCell id="Gsc03Vrimq-xFtg_UPyv-17" value="" style="endArrow=classic;html=1;rounded=0;exitX=1;exitY=0.5;exitDx=0;exitDy=0;entryX=-0.014;entryY=0.488;entryDx=0;entryDy=0;entryPerimeter=0;movable=1;resizable=1;rotatable=1;deletable=1;editable=1;locked=0;connectable=1;edgeStyle=orthogonalEdgeStyle;strokeWidth=2;strokeColor=#4284F3;" edge="1" parent="Gsc03Vrimq-xFtg_UPyv-206" target="Gsc03Vrimq-xFtg_UPyv-15">
          <mxGeometry width="50" height="50" relative="1" as="geometry">
            <mxPoint x="552.3026086213199" y="194.23734629682582" as="sourcePoint" />
            <mxPoint x="615.892910609723" y="176.42417310075288" as="targetPoint" />
          </mxGeometry>
        </mxCell>
        <mxCell id="Gsc03Vrimq-xFtg_UPyv-18" value="" style="whiteSpace=wrap;html=1;aspect=fixed;movable=1;resizable=1;rotatable=1;deletable=1;editable=1;locked=0;connectable=1;strokeColor=#4284F3;strokeWidth=2;" vertex="1" parent="Gsc03Vrimq-xFtg_UPyv-206">
          <mxGeometry x="664.323140603407" y="179.53617386331143" width="201.14095521225616" height="201.14095521225616" as="geometry" />
        </mxCell>
        <mxCell id="Gsc03Vrimq-xFtg_UPyv-19" value="" style="edgeStyle=orthogonalEdgeStyle;rounded=0;orthogonalLoop=1;jettySize=auto;html=1;movable=1;resizable=1;rotatable=1;deletable=1;editable=1;locked=0;connectable=1;strokeWidth=2;strokeColor=#4284F3;entryX=0.5;entryY=1;entryDx=0;entryDy=0;" edge="1" parent="Gsc03Vrimq-xFtg_UPyv-206" source="Gsc03Vrimq-xFtg_UPyv-20" target="Gsc03Vrimq-xFtg_UPyv-62">
          <mxGeometry relative="1" as="geometry">
            <mxPoint x="838.5556921664065" y="302.09646363549706" as="targetPoint" />
          </mxGeometry>
        </mxCell>
        <mxCell id="Gsc03Vrimq-xFtg_UPyv-20" value="Silver" style="html=1;verticalLabelPosition=bottom;align=center;labelBackgroundColor=#ffffff;verticalAlign=top;strokeWidth=2;strokeColor=#E6E6E6;shadow=0;dashed=0;shape=mxgraph.ios7.icons.data;movable=1;resizable=1;rotatable=1;deletable=1;editable=1;locked=0;connectable=1;" vertex="1" parent="Gsc03Vrimq-xFtg_UPyv-206">
          <mxGeometry x="752.8935612216305" y="326.41654751691914" width="24.00011397580863" height="29.402344867028873" as="geometry" />
        </mxCell>
        <mxCell id="Gsc03Vrimq-xFtg_UPyv-21" value="Gold" style="html=1;verticalLabelPosition=bottom;align=center;labelBackgroundColor=#ffffff;verticalAlign=top;strokeWidth=2;strokeColor=#FFD966;shadow=0;dashed=0;shape=mxgraph.ios7.icons.data;movable=1;resizable=1;rotatable=1;deletable=1;editable=1;locked=0;connectable=1;" vertex="1" parent="Gsc03Vrimq-xFtg_UPyv-206">
          <mxGeometry x="752.8935612216305" y="199.66313983414364" width="24.00011397580863" height="29.402344867028873" as="geometry" />
        </mxCell>
        <mxCell id="Gsc03Vrimq-xFtg_UPyv-22" value="" style="endArrow=classic;html=1;rounded=0;movable=1;resizable=1;rotatable=1;deletable=1;editable=1;locked=0;connectable=1;strokeWidth=2;strokeColor=#4284F3;exitX=1;exitY=0.5;exitDx=0;exitDy=0;entryX=0.288;entryY=-0.027;entryDx=0;entryDy=0;entryPerimeter=0;" edge="1" parent="Gsc03Vrimq-xFtg_UPyv-206" source="Gsc03Vrimq-xFtg_UPyv-61" target="Gsc03Vrimq-xFtg_UPyv-20">
          <mxGeometry width="50" height="50" relative="1" as="geometry">
            <mxPoint x="649.6030706982442" y="297.46587344108843" as="sourcePoint" />
            <mxPoint x="698.8933047760613" y="297.670956057573" as="targetPoint" />
            <Array as="points">
              <mxPoint x="760.0035949869639" y="302.1166714326565" />
            </Array>
          </mxGeometry>
        </mxCell>
        <mxCell id="Gsc03Vrimq-xFtg_UPyv-23" value="" style="endArrow=classic;startArrow=classic;html=1;rounded=0;entryX=-0.017;entryY=0.373;entryDx=0;entryDy=0;entryPerimeter=0;exitX=-0.072;exitY=0.58;exitDx=0;exitDy=0;exitPerimeter=0;movable=1;resizable=1;rotatable=1;deletable=1;editable=1;locked=0;connectable=1;strokeWidth=2;strokeColor=#4284F3;" edge="1" parent="Gsc03Vrimq-xFtg_UPyv-206" source="Gsc03Vrimq-xFtg_UPyv-20" target="Gsc03Vrimq-xFtg_UPyv-21">
          <mxGeometry width="50" height="50" relative="1" as="geometry">
            <mxPoint x="702.8933237720294" y="297.7214755504716" as="sourcePoint" />
            <mxPoint x="752.8935612216305" y="247.20198265179658" as="targetPoint" />
            <Array as="points">
              <mxPoint x="702.8933237720294" y="343.13849966638054" />
              <mxPoint x="702.8933237720294" y="210.77742827185193" />
            </Array>
          </mxGeometry>
        </mxCell>
        <mxCell id="Gsc03Vrimq-xFtg_UPyv-24" value="" style="edgeStyle=orthogonalEdgeStyle;rounded=0;orthogonalLoop=1;jettySize=auto;html=1;exitX=0.5;exitY=0;exitDx=0;exitDy=0;entryX=0.977;entryY=0.469;entryDx=0;entryDy=0;entryPerimeter=0;movable=1;resizable=1;rotatable=1;deletable=1;editable=1;locked=0;connectable=1;strokeColor=#4284F3;strokeWidth=2;" edge="1" parent="Gsc03Vrimq-xFtg_UPyv-206" source="Gsc03Vrimq-xFtg_UPyv-62" target="Gsc03Vrimq-xFtg_UPyv-21">
          <mxGeometry relative="1" as="geometry">
            <mxPoint x="838.5389679490531" y="263.95424649699737" as="sourcePoint" />
            <mxPoint x="848.8940171248651" y="311.816414069202" as="targetPoint" />
            <Array as="points">
              <mxPoint x="833.0039416633817" y="238.46211038032592" />
              <mxPoint x="833.0039416633817" y="213.2023639309884" />
            </Array>
          </mxGeometry>
        </mxCell>
        <mxCell id="Gsc03Vrimq-xFtg_UPyv-25" value="" style="endArrow=classic;html=1;rounded=0;entryX=0.5;entryY=1;entryDx=0;entryDy=0;exitX=0.5;exitY=0;exitDx=0;exitDy=0;movable=1;resizable=1;rotatable=1;deletable=1;editable=1;locked=0;connectable=1;strokeWidth=2;strokeColor=#4284F3;" edge="1" parent="Gsc03Vrimq-xFtg_UPyv-206" source="Gsc03Vrimq-xFtg_UPyv-7" target="Gsc03Vrimq-xFtg_UPyv-8">
          <mxGeometry width="50" height="50" relative="1" as="geometry">
            <mxPoint x="908.8943020643869" y="272.99723572586004" as="sourcePoint" />
            <mxPoint x="957.894534764996" y="272.99723572586004" as="targetPoint" />
          </mxGeometry>
        </mxCell>
        <mxCell id="Gsc03Vrimq-xFtg_UPyv-26" value="" style="rounded=1;whiteSpace=wrap;html=1;rotation=90;strokeColor=#4284F3;fillColor=none;movable=1;resizable=1;rotatable=1;deletable=1;editable=1;locked=0;connectable=1;" vertex="1" parent="Gsc03Vrimq-xFtg_UPyv-206">
          <mxGeometry x="359.7616942503955" y="408.2076065198741" width="90.00042740928237" height="258.63959584405677" as="geometry" />
        </mxCell>
        <mxCell id="Gsc03Vrimq-xFtg_UPyv-27" value="&lt;font style=&quot;font-size: 16px;&quot;&gt;&lt;font color=&quot;#4284f3&quot;&gt;Infrastructure&lt;/font&gt;&lt;br&gt;&lt;/font&gt;" style="text;strokeColor=none;fillColor=none;html=1;fontSize=24;fontStyle=1;verticalAlign=middle;align=center;movable=1;resizable=1;rotatable=1;deletable=1;editable=1;locked=0;connectable=1;" vertex="1" parent="Gsc03Vrimq-xFtg_UPyv-206">
          <mxGeometry x="352.7516609599611" y="445.55161567057473" width="110.00052238912289" height="45.46754360880754" as="geometry" />
        </mxCell>
        <mxCell id="Gsc03Vrimq-xFtg_UPyv-28" value="&lt;font style=&quot;font-size: 16px;&quot;&gt;&lt;font color=&quot;#4284f3&quot;&gt;Orchestration/Catalagog&lt;/font&gt;&lt;br&gt;&lt;/font&gt;" style="text;strokeColor=none;fillColor=none;html=1;fontSize=24;fontStyle=1;verticalAlign=middle;align=center;movable=1;resizable=1;rotatable=1;deletable=1;editable=1;locked=0;connectable=1;" vertex="1" parent="Gsc03Vrimq-xFtg_UPyv-206">
          <mxGeometry x="598.3928275023627" y="448.26956438852324" width="110.00052238912289" height="45.46754360880754" as="geometry" />
        </mxCell>
        <mxCell id="Gsc03Vrimq-xFtg_UPyv-29" value="&lt;font style=&quot;font-size: 16px;&quot;&gt;&lt;font color=&quot;#4284f3&quot;&gt;IaC - CI/CD&lt;/font&gt;&lt;br&gt;&lt;/font&gt;" style="text;strokeColor=none;fillColor=none;html=1;fontSize=24;fontStyle=1;verticalAlign=middle;align=center;movable=1;resizable=1;rotatable=1;deletable=1;editable=1;locked=0;connectable=1;" vertex="1" parent="Gsc03Vrimq-xFtg_UPyv-206">
          <mxGeometry x="847.5040105237663" y="445.55161567057473" width="110.00052238912289" height="45.46754360880754" as="geometry" />
        </mxCell>
        <mxCell id="Gsc03Vrimq-xFtg_UPyv-30" value="Argo CD" style="shape=image;verticalLabelPosition=bottom;labelBackgroundColor=default;verticalAlign=top;aspect=fixed;imageAspect=0;image=data:image/png,iVBORw0KGgoAAAANSUhEUgAAAOEAAADhCAMAAAAJbSJIAAABd1BMVEX////ueUvm9fjQ6PDpZUvscEe2z+rtdEsBAQHud0jueEvtcj71rIewy+judUTp9/nvhV34zL/P7PW80+v0sJrP4/Hzpori8vftckDoXkLpZkvtbzr2+fzpYUba7vTrbkv63tb+9/Xym37H3e/nVTXW6PPoWjztbDPrc1375+Hk7ffS5fLC2O3znnf0poDqbVXwkW/lnYPujHn1wbiXl5fNzc3hc0fl/P////P63sXYz87duq7taz/jppHU3N/iqZXuhnLyqp/ikINHR0fepZ7s7OznTir3valUKxssFw740cLvg1P/89r63rv4xrb51szfsqfbw7zriGTfn5bxopbji37YxcZ7e3tpaWmxsbHkgXBXV1cqKirCwsLctbKUlJQXFxdiUUw0QUQiAABxMBGfTSuOfHd0IgC/YTuDQyro29RycnJ8PydbLh3SpqPNsLb4nor6oWv5wqX5pmv2f1/4tnf2v5L4x5X+2bD6u4z/5tH8uJr+1bP4oCrrAAAV5klEQVR4nO2d+1/bRrbAZcAYyVgGG2P5BX5hAzbBiUMhJHUgL1qc4kCTpo+97e7em3uzr26S7u02af74OzMaSfOUZJAs09vz6Q+NLIn56pw558zM0UhRfpffZRwpmxJ1M0KQcg5JI2VK1/znb4O0vLHdBUzzIgHHG9sb15izvL1N4sxngXShwP+ZJ6G3t68hZnk7m8UQAKvRWcsjmYFi/u9apwFYMX62e81653YD6yjb2NjIz6ShzNBiHstvbDSyWMeN7aib7VfKObPfpRqdvACNB813zAcCuuV1UOQ2wktlc2uedCTmWi5rQk65IsvbSBnZBuhwPuksSNA9kb2m5qfYu5ZNPWQ38n6Vx1DmN7pI/9PqWreRy2isXQ7PZEyvNZCtdqKGEcgGss/GJdVHMOZzyLduRA3EyDbyno0rwTmC9Dg/VT4HNmm+m7+a+hxJ57vogUWNZcs2bE92bUzv6YqY3oCdOjslauxAC81dsf/xjLA7pnJRwymmB00FZ6AEY76RmgY1mgrkDDQQ4HQOPr1oA0d5Az7mPNc2GLGFkP4zOSR5hBhh/C/PCxU4Y/7KHoYjJlOsYZSnpGdQcIwMEQKmNnidpPHPVish2Cwv4OiMp0bTGxEils0YwYvVHpNOwEZx5t07bRpaajSIHQgobJ1N6InnBzI9AxEjcKm5lAzQstIZX3g2pAtiN4rICAG7fGPKZRuxPAYggpQrMt1NTRwRBuMuFwTRT/ChA5X4M1CfjDDBSU00Te2INGi70EvAeTEixAkOqMopwUjJ+nGc7idilCPO5ycGOM9rMG3/eiVAIJIUN92YXNBAcTAtASxf3kQdNYo99MTiogAwbf/h/JX5oIjVODHEHIyD4i6YDoRvVtobAeIEYgackWFyUeunYBRoikiN6TXgUENPboAbTXXEgN7NzjjijSiyUzBYS4Vtp9BQKEDLx3goEFINDu8+e3T//rNnd88PB56YIktNg2Q4Gy5gl+2EvgABy+Hd3lJMTRrGPSTxxNLN8z0PRhEieMLdMAHhkifVQ/wAZmYHn/aSSVXVYkC0OJZ79xK9ZwNXSAHiTMjjjBRro/i4SxDMzJ7XS7oacyQedyBLNw/dGAVKhOlbeIANNt3Gx134MneXSnqMFi1OQLYvzl0YBYiNEO0UBgrSRi0TdQE8jBlqjBMSMR4v9Q7HQcyHGDK6jI3iw1ITzQw+TQr4gCQoxHv6/VkpI6/ETmhKzKdoP1r2AgQKFPJRfdFkvNgbA7Eb0kAK5KOpNd5GpV40I1Mgb6dA2ucyxDVuoA0edSj5aY5xM16AvaSUT4j4TIbIZTfQ2YSQn5aZUIiPyvhm61ILFdppPG7clD0sDjEfyiADqLBBAJZdAWdtQE3Fkd5TiXGjJ7kXl7/BoBi8EulIgTuhzMtkehhQHfZ2doZCRo5QrkWuK+ZDCPuMCs2Dsk6YsTSo7ixC2YkJEHklxkuyvsjaaQg9EfVC3zbKAC4u3vDVE10QRUoMtieCdKbB2ahMg+clrKXhoiUXnpmNKUlJesN1xUbQiQ0IskQvNJ+eZNoQBHqMo/Zswh1RaBQQxpckSmTNFMTEQBMboMKsbxVeWJm2baTATNnsG0pCQGh86k+JMLEJ0kxBx+6wKpS4mcx9O9KThCIdisw03pbYKeNs4LpigKN96GdYFcrczKBkE6hLrv1QTBiXRUVWiaBNwRHSfsZUoSQUZj4l7dHVl4o7YrwkyVBZJeaC9DVdagIRHZKqsE0qaXjDJFzyM4iy5MKXEuHUYnC+hvIz7iq8SbkUTe/t3NjpxSSDDLGZ+lViNri8ZpvKZ9AhqQrZBA1kpZp0ECUm9BsxQJoVVK0N8KROZmj6Gakj9RhR+CLUJe6UN9OAFk3LKbIoyDRSiQpnhT5zXELjvr+YmA0sJKbIoa8JLVHhoSiwu4iYMD70ZaYg/Q6oIzZITxqkkUoJSwPx/WlfA4N+MGYKHpVPI83InOaYhFIzpYcY+YAIy1lyig0dkq0TDsYElBLe9OdNu1eezCjncnnoaBo+jfR8TCOVEcYvfJkpGkLlclfIbGDJRarbIeeBTUKZkT4LijApIaTNFM4NwyZeXpH2C3TOjdG9pBNsN8d0pZK0Dbga2Tw/rcO82cLLzw9bhCkmVkgrZsaLhi6Eybu+JmzS1vt/V9YhY6TSeXzxvOElCGXOlCXMBkTY9dcNZzPm2FdLrANJJHwQEknNOhIvQqYjdgMizNm3dO2GsyDea+vrc46se1FqGK7oXFNcdwsXTEfMBUTY8edoZutxoqVWe10NFxKus9eAi2SzNWEROjkbOiybY9vb5dqKFOnCqPHPBElFqsN8KIRrNKE43me+rFSs9lXs/0Uit9UESUVd9aVk6XsihCJXmhl820LNLLSaxaNbtzYLzVbBU42WgcKrdvFVmLJ1JF4zpUZQ6aAI7ecmdaWZr1DLKs3N4xG+uLb8vGg1d64oQtSwhVaaR8db1lX9N/jJVJpfiRDpMWJAhFnPYJH5qmI+91GNvL7W32zJETFgpXVri/qrteNdzChCjIYwc4gUuNvn7lA7tvpWkSM0AQubI/6q5y05YjSEmxXY1JroHltFjLgu7IPNW8K/3C+gZ1bxIAyqH2Y9wmHmBbCqgripQCG7QkQMuOx6VeEFjxiuDoWEma+aoC1H0rtYiFRXNDthgbdr+qomP3UaAeEssNGKHBA01vI2rAoLb1yuqjbhKbvcQHHyhJnvgVsoCvugJcstNvJryJEcuf7159Cjtn5klRiBDo8qcy25tSF5U2B6IlJhs+p+FbTTyiarxIl7GhDrvZQBHaqpRJsQqfC5x1UjqPoWGzEmoEM6WmQecCocvHz48PZj6tCbCqVElI426UC/9/XDh9/QVx1BJX47UUJBPMyAAUWLuur2ApIBeazaogjX+V74HbroD9RVfWjcuxPoh/MzckKYr9Hm9h8LCzxibZMMGChU0JHipXUVqcVaS5DYhNEPnbEFP00DPSnV1rLV1IWH5K2OTV+jOZ60UCV+fmxf9QN5FTTT1vdywkmMnjKPCnRb9+y2LpC36heIeGGOCsmfb4uvggGj8IAiDCXzZsf45Ag48wJYKRkMv3HaShrciOyIKFbskn/ppZgQar5yNAHCDk1IhosMNCTymoG4rVssIe1oJDqEqUJlcwKEzlwbT7jJEDr98Dt3QipTd/rhbfIw0jxNGM4sRlceEDlCsS/1IlR+wBf9kTrqRYjeugyC0GXOO/MtS4h74h/3qINVjnCTvupr0//SV0H/xFgppcLA5rxTDCExnQhTmgqdnCiDH777jslOrOR7XeJLgey9fPj1N8wx5GleuBDOB6XDNamryXwPooVsGMu0lY6HFdfhiCnP4dzBI5KQntXPB7Yyw7gaoiNmzgHhsfetblW4iO8xHgFSQ7kPFfHpbtgJTIcNxtUQHXGwy4Q2cVtb1Bh43c/QAnfe4p7clTasBl6WEHtSch3f7IjEOj50pswoQSB9eoCIQn7L6yI0InFzNDN46enyK6RoE7YUXYth/kJ2RJCYeqmjdkQaqV8zRaNK126IAa9QZ1rubHSYehquehaaqZcS+7SR4rnSXQ9fg6Yx5uRGatbTbGxcvQaznOLWSEkzfVDwGuTXiuw8DYoXHqqvQkDXWBFYTRRd12YeI/7qAA5xXC0O2yg514aYK/x0tyM1NJXcolTIVAwFV+qd46oxSDPNfAnHOC6N7XNTbVbQZ3MFUm5BFTJDJ9pIg6tNpIug+SrvDCR4UpUCNuc4FWJ3WpF3xWP0WJ7MUkJ70gDrS+kaYfMQmZseIkSJFsWAlp1KdF87QoAtuqyGKVMIsEaYrvPm3wiCqRt0HAKF1DatdVJ2IVgzDwtjxpa5ENB65DKBAY00uNcR6Fp98xg1l/EAPvLCJpug1o6tZRlu6cleAG4dVdmrnqOVp7nCC9pGOSMNsFafft9C9FoXQqy0jo4JPW4d71oLpAJAG7HSvEXqsfq8Yqq99S0DyFQLzQf6lmWOnMoQvQCc+f6J2a+am8f95dGo339ebNoL+UVxrULCWuZuNY/gVcv9/puWtTLefOS6YhHwOzPQTLusEpmZ4cMiXpsumELUVQhX8VFftGtN2KsKFa52j1FhN+CX16h317AS6TrazOBLqsTE4RNZqG2pknqaBwP3hcOZoN9dQ77Gub1IiUAuRM11L4qKaSLG4hK/AwFXPBvwzl/lLPUOKT7INOKmnmDa61H0JWQsrifUOsvHqTDwd0iZ94CFOyOaL3Vp6+vrRSjrnnV7jiTsa9Aj0fmiLxowlJe56Xe58cE8TxiE6FzhHvMyST7IfMYSoRKVSRFOQIXsngq4E1DJ2/3QCBk3E86eCuz2O/goSXh33FJ9mRjMS+uMjcLS4DA2wmT3NuEJz133+hhD2EJ2BjCsvU3QC93kH4LH8uEQnrusxqB0JqS9TLvk3DDacDZNER6WvBvvS+i3SNktIzpBpzOOoH2imOdJDqIGgRGSSSn71mGY+0TBrWfZbT2pDWfb3o33RziQA0I3E+KedNyegrQWA9MhAcg+0U6o+7Vx+5kxWpR4mk/GfVmoJNVg6Hvuoc1LuZ2pbETxW0Hqn5ZkqYAE3ZDECXNNNNytIWFmw9qpo0XxxgL6n2tL4lygdCI8rqlSwNwVFpr8IvIbtNpazPSEhOpCubYq6qKl1bTQN6lLEhOFUxeh71+KtvLmv4eAEDN1oTWq//lYUZZLHH1pVRFHULWXEQOuTeaDHoJ9hDGi5A1L9b9gCcnogvZDanJVUb4R+ia9nhE6GdgJJ7Ixe0rgbRCibPj0yiytOWsn7d/1pAFnu/9beAEaAAsAu5OwUSiiDcvhZvrS1/FfW7U1Z/VSyQBSatfR5PHj/xG7JjB4Euzp3Q1nzOQfEahR8qbzJ059VK16dnJyZr1a87dXwvCi3xftITxBQIzIP+R9yQBR/XyBrZRBsrfwWni+8WyfN5FGaj41I7pLOJIWffxhZuZUQviXhYU9/iaDhc+Fp8eMuxwhrO+K4PMPHOJIkru8XhAgPl5Y+Eyc0xh3hYCh7gHtE/GvsuzsM1h1SHWiMqzVExtpTD8X9MHJahBKTuBuZITqK1Smbhe7lQc//AEc+PwTCeFfpwFQUfIIkVLjY5kOP8HFlV+/vH379su/PTT/9RdJ4k0TptMRAZopapYaSz2WbTkAfQ0vEhXG9MckIfoyWUTfl+O/2SXdVAEEDE5eyXYAUwlC+LGAiD9LRn13Tb5txGsOUBIqIKHDF/F312BZGGWp+6KdWLESX/kFjGmaHQ6RhUb8lfmcWcxvMu5L9tZDiHRXlPlRkhB9VS76z1iizoi/YbkvHgILtCjXIBwAI8Jp+YYlQGzY3yHdFw+BrZa//sx2Mi6ngQHw/oz1HdIp+RQ5+phzdi2d3l/1WH16/fd/fPaPv792n3zT64BwDX2fdgoUiAUV63bz+57bKKkq/M9d9NX9vPmB4aixSNnuwi2pGuPuSCcmvInc19R9Rx59TfOfQaw+GT8i/xw1kEA62dSPV9ehlkj+M5WdRj4Ffjv3R8N//YWELwEIo/w+roeM7iUS4+73xQImkm7F0VHLBxU28bJ6RHyJhP4hagwXeXoRR428jB4TWOIXB1FjyKV/0Ivjdo7JqCVsiS9NMeGmYhOOxagRgAnN8PEuXEQyekIS+u6PJB68Rl2PGkQqS02lp9Lt9VQkfTo6XyucRE0ikVsFSOi4DG9IBg8rXZsreL4MF4m8KcyZhHzDNU2w1Rd3lvUstLlKcRoRjwpzgBB/x4JvPaR0hP+Z0LUm3jcsStnq91eeoG2dlC+sxFTE4CKkktE7Ua1Wv38WNRiU2mh0VKm0CmadflPZcpathYqS8FEzWHgzxUKhUCy8G0WawlVvbRafNAvOlo5PSEL1reoPEtBpb3lCeNtK80lz82jFx2vfIUmtWq2+24RSbM1VWsVjkjD20RD6E5F1qm/fOlqMF8BDa+3C2+6uVKuj6fA6W8tP3vTBo3YI1Z/uWB8mk1ASfU/96aM9/2GcLp/961/L0enNXRxC4/SUHPBrtDChQ/3fkX1yaTp0JhOHMEkTuovx8fT6EZKN/k0R2n7flw5FJ0854cFbVdBoqQw17mRNnW5CxZ71Tp7azmMo0+DSe9U6edk6WX07xQNgKAThLzha6D9LlqTUizN8dnL5g3Wdvho1gofYhMbIJnwnJbQKcJLLB0P1mhFqwwPL8IyPUkIrKTDeKdY5+o2oETzEIlSXFIsw+UHyVQhwDg4u+r8dwuuiQ4Kwrch0ODzAhMa/lWtnpb4Il2zCj79RHS4puM47uXx9CN8Zdut/o4RPS1ckNH6JGsFDapclfI/Nu/Q0agQPqTne0Q8hTkwB4Qd8dmlah76WWITJOxahNnQh/Fm3CKula0ZofGER6j+7EOJzSMKpt1KrZ90hWj8W4XXRYan6/4jwbCzC9tQTWk5/bB1eF1+q/IRoNL2q4MEfaP0iUQymSQi3cODQp57wBNGowy3l1I4E7x1CdSghVMwPzOvvowbwFJNQ34GlJxpu/S92qZSmHThaVC+Up/Y5ilm5qf8aNYCnmDFcBYRPEYumflDuJB1CxakF1xcV3EWN02ukw3e2Dp+ingVM0faT4F+6Ys83wpE9JtRPr5EOzZeX9bqimJNLNCFQ1h3bZOEwAhFqsAzKJDSmtUrBEYfQbL06PHBWhmPJU8WZKE5+sAhjT68zIdAhQThSqnZHBDETEw6vE6FZq0AT2laq9sBhu6DftlKoZ0yo1qMG8JKPpg0asMpgDEJw+I55krETMYGr1E6XyOySJ4TxQfnVnhb/gjjHzmj1pdMpXbmoba1eWNsKICN1Wm/HwxIsHbXXGCEhSgYQoZ3bqaXh6tPpy91OFtsl3TI/vV2FxxAhDHq2DtHa4Ja1VUTyCwxvEh7Yr+ureqm9OkUu5+DsXbtdSuq2tOtoCbCG4iEMCRahOoSqOdhRHULkZtUYUtnB25Jzk2Sp3X53Ng32urXya32VFrzEuWJYGBYhXnW5Ya2p3bH8ixUjPjB3qv+6MsUl0U/bdtCzCc3Z3lWCEP809bMzAjlro8CuXtQcQuhaFOefEF7pIVytPRVFbGPI2dCaLIUtZ+ZgrNkqRGj/Y3htGE9Hy2osiUf6bVSzzczB2FCojy23dVPb4Jksj04jbLm31La2Fi967VJJRaKX1LqJhEfy6lt84orZEVH8B5fVYyDQICmV2r2Lxa2t6YuGCvSpKzux2BIh76vYqR7gHa90K8S9w3W2VmHJ1odF8sJYbGdlZcprTmix3ixtW57fivn61KfZvuS0jQGNnn3sRtJKfq6Ne5FJ9WxojQ2Nt8TxupWpGsOzalSNu6rUatV6vWTYQ6UdKgOrJ/E4WDWS9RvV2lT6Flc5WRmCVNxOpQ2D7XKLRtJO1EGiPVyZokzbS2onJyATLxl2Em20Y2e8azw4G7aJc0CgaJ+cXQdVjlY4eSc9+SN/8scJtvV3+V2mRP4PrrDmZ2M5680AAAAASUVORK5CYII=;fontSize=9;movable=1;resizable=1;rotatable=1;deletable=1;editable=1;locked=0;connectable=1;" vertex="1" parent="Gsc03Vrimq-xFtg_UPyv-206">
          <mxGeometry x="969.6945908031021" y="509.45877418739866" width="39.81018905737257" height="39.81018905737257" as="geometry" />
        </mxCell>
        <mxCell id="Gsc03Vrimq-xFtg_UPyv-31" value="Terraform" style="shape=image;verticalLabelPosition=bottom;labelBackgroundColor=default;verticalAlign=top;aspect=fixed;imageAspect=0;image=data:image/png,iVBORw0KGgoAAAANSUhEUgAAAOEAAADhCAMAAAAJbSJIAAAAqFBMVEX///9fQ+lAQLL6+v45ObCilPFPK+dZOuhRL+hWN+j39/x9fce3rfTp5vtUM+heQekxMa4tLa28s/XVz/ifkfF7ZuyBbe1oTuonJ6ypqdk3N7BsU+vc1/nNxveZivDl4fvHx+aHh8vW1u1/a+3h4fJLS7aFcu5kZL7Cufbt6vypnPKLee50Xuu6uuCZmdLs7PdbW7tFGue0qfRLJOciIqtkSepZWbt1dcQVUpZjAAAF8klEQVR4nO2d63baOBSFZWMwkICBMARIm0svaZOZaUtop+//ZiMZEyxbsiVjR0en5/vTH+1a8bfK7tnWhTJGEARBEARBEARBEAThP+/vXD9B17zslt9dP0O3XI7i+MX1Q3TK5ShIptfvXT9Gh3DDIEiGf+GNY2rIHQe3Y9eP0hGZYRDEQ6RxfDVEG8eToYjjCmEc84b8ozq9RTcdZUPuOMIWx6Ihj2OAK44lQxHHj5jiqDBMpyOeOCoNeRzxlFWNIaLpqDMUjjjKqt4QS1mtMuRxHFy6fsCzqTbEEMcaQwTTsdYwLas+x9HA0POyamTI4/jL2ziaGfq8lGNq6G9ZNTf0tazaGPo5Ha0MvYyjpWEax57rh7bC2jAI9hPXD21FA8MhGcKiseH4LSfH5oxi3Niwt7u5akughvvPayeGg2S4eovP66cv8yhyYyiWAJZdT47xwzoKQ2eG4r1q0ZaLks18G4ZODXmR6zCO959nYejaUJScx27iyAMYhhAMxTLHsv1ljvHDPAqhGAZJHLcdx81sG4ZwDNNljjbjeB/OwhCWYatxzAUQkqE4zdFvI46HCQjSMAhGyflx3Gy3RT9AhudPx9cJCNUwPbHSPI7lAAI0TMtqs+cZP/wsBRCkoWgATeIoT0DYhk3iqAkgVEMRR6vpqA0gXEOrsipVUH8Mzd8dqwII29CsrBYrqFeGBtPx05d1vR9kw5rpqKqg3hmKsqo7saKsoK0bvky7NtRNR6MAtmB4dz1NOjZMT6wU41g3AdszZOxrMrJztDcsrawaB7AVQ9Z7nsZdG4rpeIpjtgr6ZoaMPf09sPhrbGYo4vgu/WnVFbQbQ8be/TM0dmxoyP9VXaY/67flX2A7hmkcuzaM++lPurCKYHuGjD0PzOLoryGPo9FH1WNDEUeD6ei1IY/jr9rp6LmhwXT03bB+OvpvyON4U/VPDgbD6rKKw5BPR20csRjqpyMaQ21ZRWSoKauoDJVlFZmhIo7YDMtlFZ9hcTpiNJTLKkpDqawiNcxNR7SGr3FEbJiVVdSG6XTEbSjiuENuyNgCveEBMkRguLPddzzDcO7kMvmt3Z7cGYbb2TcXgozdPdrsyTU2jNa/3d0/vrqx2iJvZDj/74MzP8HC5qPawHC2/depH6e3HBo7WhtGa0cBlJmsTLePLQ2jucMAypjG0c5w/sNtANk4yB0DWhhtkdsYzkL3AdznD8mO+wZb5OaG0fyb+yvxvLXFw9wxoMmqdjqaGjqdgCfSXiodkr2qO0BmaOh6Ah45NO9kep2PY1z9vVomhrPIeQAzju8W0o2u8bKqARgY8grqPoAZp7cn6UbXpKKs1hpG6wsIAczIvx9KN7r007HO0PkElJHegOVDsouR+qNabQgngBmFd/xkuHo6/d5SOR2rDIFU0DylVQzpzLqyrOoNAVXQE4p1Gum+syKOWkNgAcxQrUQV4lgsqxpDABVUiXqtTbrRNS68OyoNtxAqqBLdamI8zZdVaToqDGFNQBn9emn+zLpUVsuGUCqokooV4VJZTdSGUAOYUbnmLZXV3rGsyobOVkFNqVnVly5YTh7T6Zg3hBzAjNp9izjOx1FMx5whzAkoU78zUyqrr4bgKqgSk70naTr2+vvDjZKLn8ADmGG2uxbv83H8mv6ygR7ADNP9w/a/nOetMN4h7fS7srrEYg/Y0/+/xmqXOx528F1ZXWO5jy+VVT+wPakgl1UfsD+LkeyfXT+0Fc1Pm/gCGZIhfMiQDOFDhmQIHzIkQ/iQIRnChwzJED5kSIbwIUMyhA8ZkiF8ejvbC5a+GR6PASE2tL5g6aFh7RUSBIalQ7L4DI1udHluaHCjy3tD4zh6bFhzowuDodl09NvQZDr6bijiWP1R9d9Qd6MLkSFjT1VxRGFYGUckhhVfP4DGUPv1A3gMdWUVk6E6jrgMVWUVmyHr9QvvjugMS2UVoWEhjigNpa8fQGqYK6tYDU9xxGt4jCNmw0NZxW3Iy+p0ittQlNVb14/QOU/1f4QgCIIgCIIgCIIgiD+X/wEzo5EzDuDO6gAAAABJRU5ErkJggg==;fontSize=9;movable=1;resizable=1;rotatable=1;deletable=1;editable=1;locked=0;connectable=1;" vertex="1" parent="Gsc03Vrimq-xFtg_UPyv-206">
          <mxGeometry x="884.504186236471" y="509.9336574206462" width="44.00020895564916" height="44.00020895564916" as="geometry" />
        </mxCell>
        <mxCell id="Gsc03Vrimq-xFtg_UPyv-32" value="&lt;font style=&quot;font-size: 14px; font-weight: normal;&quot;&gt;Looker&lt;/font&gt;" style="sketch=0;html=1;verticalAlign=top;labelPosition=center;verticalLabelPosition=bottom;align=center;spacingTop=-6;fontSize=11;fontStyle=1;fontColor=#999999;shape=image;aspect=fixed;imageAspect=0;image=data:image/svg+xml,PHN2ZyB4bWxucz0iaHR0cDovL3d3dy53My5vcmcvMjAwMC9zdmciIGlkPSJzdmc4OTgwMSIgdmVyc2lvbj0iMS4xIiB2aWV3Qm94PSIwIDAgMjA4LjA1NjU1IDMzNC42MTMxNiIgaGVpZ2h0PSIzMzQuNjEzMTZtbSIgd2lkdGg9IjIwOC4wNTY1NW1tIj4mI3hhOyAgJiN4YTsgIDxkZWZzIGlkPSJkZWZzODk3OTgiLz4mI3hhOyAgPGcgdHJhbnNmb3JtPSJ0cmFuc2xhdGUoLTQuMjQ2MjUyNCwxNS42NzE5MTEpIiBpZD0ibGF5ZXIxIj4mI3hhOyAgICA8cGF0aCBpZD0icGF0aDkxODAyIiB0cmFuc2Zvcm09InNjYWxlKDAuMjY0NTgzMzMpIiBkPSJtIDQwOS4yMjI2Niw0MTkuMDk5NjEgYyAtMzYuNjA4MTEsMCAtNzIuMDc2NjcsNS4wNzUzIC0xMDUuNzUzOTEsMTQuNTMxMjUgbCA0OS4wMzUxNiwxMjAuMDQxMDIgYyAxOC4yNjE3MiwtMy45Mzg5OSAzNy4yMjE5NiwtNi4wNjgzNiA1Ni43MTg3NSwtNi4wNjgzNiAxNDYuOTM1MTQsMCAyNjQuNjc3NzMsMTE3LjczNDc3IDI2NC42Nzc3MywyNjQuNjY5OTIgMCwxNDYuOTM1MTQgLTExNy43NDI1OSwyNjQuNjY5OTYgLTI2NC42Nzc3MywyNjQuNjY5OTYgLTE0Ni45MzUxNiwwIC0yNjQuNjY5OTEsLTExNy43MzQ4MiAtMjY0LjY2OTkzLC0yNjQuNjY5OTYgMCwtOTkuMTg3NjMgNTMuNjg5ODMsLTE4NS4wMDU5NiAxMzMuNzU1ODYsLTIzMC4zNDc2NiBMIDIyOS42MjY5NSw0NjIuNzUgQyAxMDMuMDI0Nyw1MjguMjI0NzQgMTYuMDQ4ODI3LDY2MC41MDUyMyAxNi4wNDg4MjgsODEyLjI3MzQ0IGMgMi4zZS01LDIxNi4zODM3NiAxNzYuNzkwMDYyLDM5My4xNzM4NiAzOTMuMTczODMyLDM5My4xNzM4NiAyMTYuMzgzNzMsMCAzOTMuMTgxNjQsLTE3Ni43OTAxIDM5My4xODE2NCwtMzkzLjE3Mzg2IDNlLTUsLTIxNi4zODM3OCAtMTc2Ljc5Nzg3LC0zOTMuMTczODMgLTM5My4xODE2NCwtMzkzLjE3MzgzIHoiIHN0eWxlPSJjb2xvcjojMDAwMDAwO29wYWNpdHk6MTtmaWxsOiM1OTg2ZjI7ZmlsbC1vcGFjaXR5OjE7c3Ryb2tlLXdpZHRoOjMuNzc5NTM7c3Ryb2tlLWxpbmVqb2luOnJvdW5kOy1pbmtzY2FwZS1zdHJva2U6bm9uZSIvPiYjeGE7ICAgIDxwYXRoIGQ9Im0gMTg5Ljk0MzM2LDg2LjI1IGMgLTk1LjEzMDMzMSwwIC0xNzMuMTc5Njg4LDc4LjA1NTIyIC0xNzMuMTc5Njg4LDE3My4xODU1NSAtNmUtNiw5NS4xMzAzMyA3OC4wNDkzNTMsMTczLjE3OTY4IDE3My4xNzk2ODgsMTczLjE3OTY4IDkuMDE2MTgsMCAxNy44NzU4LC0wLjcwODMyIDI2LjUzMzIsLTIuMDU4NTkgbCAtMzQuODI4MTIsLTg1LjI2NTYyIGMgLTQ0LjE1NzMsLTQuMDg2NjkgLTc3Ljk1NTA4LC00MC41MDcwNSAtNzcuOTU1MDgsLTg1Ljg1NTQ3IDAsLTQ4LjE1MDM5IDM4LjA5OTYyLC04Ni4yNTU4NiA4Ni4yNSwtODYuMjU1ODYgMTMuMTU5NzcsMCAyNS41NTg4OCwyLjg2MjQ2IDM2LjY0NDUzLDcuOTgyNDIgbCA2NC41NTQ2OSwtNjEuOTE5OTIgQyAyNjIuNjA4MzcsOTguNTMzOTEgMjI3LjYyOTI5LDg2LjI1IDE4OS45NDMzNiw4Ni4yNSBaIG0gMTM4Ljg4ODY3LDcwLjE2MjExIC02My40Mjc3Myw2MC44MzU5NCBjIDYuODc2MzgsMTIuNDI2NzggMTAuNzg5MDYsMjYuNzg4MTUgMTAuNzg5MDYsNDIuMTg3NSAwLDIxLjc2NzEyIC03LjgwNDE1LDQxLjQ2NTQgLTIwLjc4NTE2LDU2LjUzMzIgbCAzNC41MjM0NCw4NC41MTk1MyBjIDQ0LjE3Mzg3LC0zMS40ODc1MSA3My4xOTE0MSwtODMuMDc4OTIgNzMuMTkxNDEsLTE0MS4wNTI3MyAwLC0zOC40ODM1NSAtMTIuNzgyLC03NC4xNjUzMiAtMzQuMjkxMDIsLTEwMy4wMjM0NCB6IiB0cmFuc2Zvcm09InNjYWxlKDAuMjY0NTgzMzMpIiBzdHlsZT0iY29sb3I6IzAwMDAwMDtvcGFjaXR5OjE7ZmlsbDojNmY5OGY0O2ZpbGwtb3BhY2l0eToxO3N0cm9rZS13aWR0aDozLjc3OTUzO3N0cm9rZS1saW5lam9pbjpyb3VuZDstaW5rc2NhcGUtc3Ryb2tlOm5vbmUiIGlkPSJwYXRoOTE3OTgiLz4mI3hhOyAgICA8cGF0aCBpZD0icGF0aDg5OTI4IiB0cmFuc2Zvcm09InNjYWxlKDAuMjY0NTgzMzMpIiBkPSJtIDQwNi4xMzY3MiwtNTkuMjMyNDIyIGMgLTU4LjgxNTQ3LDhlLTYgLTEwNy4xMDM1Miw0OC4yODgwNDUgLTEwNy4xMDM1MiwxMDcuMTAzNTE2IDAsMTguNDk0NDUxIDQuNzgxMDEsMzUuOTQ1MDE3IDEzLjE1NjI1LDUxLjE4MzU5NCBsIDQ0LjMxMjUsLTQyLjUwMzkwNyBjIC0wLjQ3NTY3LC0yLjgyMDc3NSAtMC43NzUzOSwtNS43MDc1NjQgLTAuNzc1MzksLTguNjc5Njg3IDAsLTI4LjE3NjM4IDIyLjIzMzc4LC01MC40MTAxNTI1IDUwLjQxMDE2LC01MC40MTAxNTY1IDI4LjE3NjM4LC00ZS02IDUwLjQxMDE1LDIyLjIzMzc3MDUgNTAuNDEwMTYsNTAuNDEwMTU2NSAwLDI4LjE3NjM4MSAtMjIuMjMzNzgsNTAuNDEyMTEzIC01MC40MTAxNiw1MC40MTIxMDkgLTUuMDY4NjksLTEwZS03IC05LjkzNDE3LC0wLjc0NTYzMSAtMTQuNTIzNDQsLTIuMDg5ODQ0IGwgLTQzLjM2MTMzLDQxLjU5MTgwMSBjIDE2LjczMjIzLDEwLjg0Nzk1IDM2LjYxMTIzLDE3LjE4OTQ1IDU3Ljg4NDc3LDE3LjE4OTQ1IDU4LjgxNTQ5LDEwZS02IDEwNy4xMDM1MSwtNDguMjg4MDQgMTA3LjEwMzUxLC0xMDcuMTAzNTE2IDAsLTU4LjgxNTQ4MyAtNDguMjg4MDIsLTEwNy4xMDM1MjMgLTEwNy4xMDM1MSwtMTA3LjEwMzUxNiB6IiBzdHlsZT0iY29sb3I6IzAwMDAwMDtvcGFjaXR5OjE7ZmlsbDojZDZlM2ZiO2ZpbGwtb3BhY2l0eToxO3N0cm9rZS13aWR0aDozLjc3OTUzO3N0cm9rZS1saW5lam9pbjpyb3VuZDstaW5rc2NhcGUtc3Ryb2tlOm5vbmUiLz4mI3hhOyAgPC9nPiYjeGE7PC9zdmc+;movable=1;resizable=1;rotatable=1;deletable=1;editable=1;locked=0;connectable=1;" vertex="1" parent="Gsc03Vrimq-xFtg_UPyv-206">
          <mxGeometry x="998.0947256744753" y="227.9136402630823" width="31.450149355799226" height="50.790241201305015" as="geometry" />
        </mxCell>
        <mxCell id="Gsc03Vrimq-xFtg_UPyv-33" value="&lt;font style=&quot;font-size: 14px; font-weight: normal;&quot;&gt;BigQuery&lt;/font&gt;" style="sketch=0;html=1;verticalAlign=top;labelPosition=center;verticalLabelPosition=bottom;align=center;spacingTop=-6;fontSize=11;fontStyle=1;fontColor=#999999;shape=image;aspect=fixed;imageAspect=0;image=data:image/svg+xml,PHN2ZyB4bWxucz0iaHR0cDovL3d3dy53My5vcmcvMjAwMC9zdmciIHhtbG5zOnY9Imh0dHBzOi8vdmVjdGEuaW8vbmFubyIgd2lkdGg9IjIwLjAwMTA0NTIyNzA1MDc4IiBoZWlnaHQ9IjIwLjAwMTA0NTIyNzA1MDc4IiBmaWxsLXJ1bGU9ImV2ZW5vZGQiIHZpZXdCb3g9IjAgMCAyMC4wMDEwNDUyMjcwNTA3OCAyMC4wMDEwNDUyMjcwNTA3OCI+JiN4YTsJPHN0eWxlIHR5cGU9InRleHQvY3NzIj4mI3hhOwkuc3Qwe2ZpbGw6I2FlY2JmYTt9JiN4YTsJLnN0MXtmaWxsOiM2NjlkZjY7fSYjeGE7CS5zdDJ7ZmlsbDojNDI4NWY0O30mI3hhOwk8L3N0eWxlPiYjeGE7CTxwYXRoIGNsYXNzPSJzdDAiIGQ9Ik00LjczIDguODN2Mi42M2E0LjkxIDQuOTEgMCAwIDAgMS43MSAxLjc0VjguODN6Ii8+JiN4YTsJPHBhdGggY2xhc3M9InN0MSIgZD0iTTcuODkgNi40MXY3LjUzQTcuNjIgNy42MiAwIDAgMCA5IDE0YTggOCAwIDAgMCAxIDBWNi40MXoiLz4mI3hhOwk8cGF0aCBjbGFzcz0ic3QwIiBkPSJNMTEuNjQgOS44NnYzLjI5YTUgNSAwIDAgMCAxLjctMS44MlY5Ljg2eiIvPiYjeGE7CTxwYXRoIGNsYXNzPSJzdDIiIGQ9Ik0xNS43NCAxNC4zMmwtMS40MiAxLjQyYS40Mi40MiAwIDAgMCAwIC42bDMuNTQgMy41NGEuNDIuNDIgMCAwIDAgLjU5IDBsMS40My0xLjQzYS40Mi40MiAwIDAgMCAwLS41OWwtMy41NC0zLjU0YS40Mi40MiAwIDAgMC0uNiAwIi8+JiN4YTsJPHBhdGggY2xhc3M9InN0MSIgZD0iTTkgMGE5IDkgMCAxIDAgMCAxOEE5IDkgMCAxIDAgOSAwbTAgMTUuNjlhNi42OCA2LjY4IDAgMCAxIC4wMDctMTMuMzYgNi42OCA2LjY4IDAgMCAxIDQuNzI3IDExLjQwM0E2LjY4IDYuNjggMCAwIDEgOSAxNS42OSIvPiYjeGE7PC9zdmc+;" vertex="1" parent="Gsc03Vrimq-xFtg_UPyv-206">
          <mxGeometry x="954.0045162914171" y="163.68315699170714" width="42.000199457665104" height="42.000199457665104" as="geometry" />
        </mxCell>
        <mxCell id="Gsc03Vrimq-xFtg_UPyv-34" value="&lt;span style=&quot;font-weight: normal;&quot;&gt;Cloud&lt;br&gt;Build&lt;/span&gt;" style="sketch=0;html=1;verticalAlign=top;labelPosition=center;verticalLabelPosition=bottom;align=center;spacingTop=-6;fontSize=11;fontStyle=1;fontColor=#999999;shape=image;aspect=fixed;imageAspect=0;image=data:image/svg+xml,PHN2ZyB4bWxucz0iaHR0cDovL3d3dy53My5vcmcvMjAwMC9zdmciIHhtbG5zOnY9Imh0dHBzOi8vdmVjdGEuaW8vbmFubyIgd2lkdGg9IjE3LjMyOTk5OTkyMzcwNjA1NSIgaGVpZ2h0PSIxOS42MTAwMDA2MTAzNTE1NjIiIHZpZXdCb3g9IjAgMCAxNy4zMjk5OTk5MjM3MDYwNTUgMTkuNjEwMDAwNjEwMzUxNTYyIj4mI3hhOwk8c3R5bGUgdHlwZT0idGV4dC9jc3MiPiYjeGE7CS5zdDB7ZmlsbDojNDI4NWY0O30mI3hhOwkuc3Qxe2ZpbGw6IzY2OWRmNjt9JiN4YTsJLnN0MntmaWxsOiNhZWNiZmE7fSYjeGE7CTwvc3R5bGU+JiN4YTsJPHBhdGggY2xhc3M9InN0MCIgZD0iTTEyLjE4IDcuOThMMTEgNy4yOWwtMy41MiA2LjEgMS4xOC42OCAzLjUyLTIuMDN6IiBmaWxsPSIjNDI4NWY0Ii8+JiN4YTsJPHBhdGggY2xhc3M9InN0MSIgZD0iTTYuMzIgMTIuNzJsMy41My02LjA5LTEuMTktLjY5LTMuNTIgMi4wNHY0LjA2eiIgZmlsbD0iIzY2OWRmNiIvPiYjeGE7CTxwYXRoIGNsYXNzPSJzdDIiIGQ9Ik0zLjc1IDcuOThMMCA1LjgxdjkuMmw3Ljk3IDQuNnYtNC4zM2wtNC4yMi0yLjQ0em05LjEzLTEuMmwzLjc2LTIuMTdMOC42NiAwIC42OCA0LjYxbDMuNzYgMi4xNyA0LjIyLTIuNDR6TTkuMzUgMTkuNjFsNy45OC00LjZ2LTkuMmwtMy43NiAyLjE3djQuODZsLTQuMjIgMi40NHoiIGZpbGw9IiNhZWNiZmEiLz4mI3hhOzwvc3ZnPg==;" vertex="1" parent="Gsc03Vrimq-xFtg_UPyv-206">
          <mxGeometry x="812.5038443090452" y="509.45877418739866" width="36.00017096371295" height="42.000199457665104" as="geometry" />
        </mxCell>
        <mxCell id="Gsc03Vrimq-xFtg_UPyv-35" value="&lt;span style=&quot;font-weight: normal;&quot;&gt;Cloud&lt;br&gt;IAM&lt;/span&gt;" style="sketch=0;html=1;verticalAlign=top;labelPosition=center;verticalLabelPosition=bottom;align=center;spacingTop=-6;fontSize=11;fontStyle=1;fontColor=#999999;shape=image;aspect=fixed;imageAspect=0;image=data:image/svg+xml,PHN2ZyB4bWxucz0iaHR0cDovL3d3dy53My5vcmcvMjAwMC9zdmciIHhtbG5zOnY9Imh0dHBzOi8vdmVjdGEuaW8vbmFubyIgd2lkdGg9IjE2LjQyMDAwMDA3NjI5Mzk0NSIgaGVpZ2h0PSIyMC4wNDk5OTkyMzcwNjA1NDciIGZpbGwtcnVsZT0iZXZlbm9kZCIgdmlld0JveD0iMCAwIDE2LjQyMDAwMDA3NjI5Mzk0NSAyMC4wNDk5OTkyMzcwNjA1NDciPiYjeGE7CTxzdHlsZSB0eXBlPSJ0ZXh0L2NzcyI+JiN4YTsJLnN0MHtmaWxsOiM0Mjg1ZjQ7fSYjeGE7CS5zdDF7ZmlsbDojNjY5ZGY2O30mI3hhOwk8L3N0eWxlPiYjeGE7CTxwYXRoIGNsYXNzPSJzdDEiIGQ9Ik04LjIxIDBMMCAzLjQydjUuNjNjMCA1LjA2IDMuNSA5LjggOC4yMSAxMSA0LjcxLTEuMTUgOC4yMS01Ljg5IDguMjEtMTAuOTVWMy40MnptMCAzLjc5YTIuNjMgMi42MyAwIDAgMSAxLjAwNSA1LjA2QTIuNjMgMi42MyAwIDAgMSA2LjM1IDQuNTZhMi42MyAyLjYzIDAgMCAxIDEuODYtLjc3em00LjExIDExLjE1YTguNjQgOC42NCAwIDAgMS00LjExIDIuOTMgOC42NCA4LjY0IDAgMCAxLTQuMTEtMi45M3YtMi4yNWMwLTEuNjcgMi43NC0yLjUyIDQuMTEtMi41MnM0LjExLjg1IDQuMTEgMi41MnoiLz4mI3hhOwk8cGF0aCBjbGFzcz0ic3QwIiBkPSJNOC4yMSAwdjMuNzlhMi42MyAyLjYzIDAgMSAxIDAgNS4yNnYxLjEyYzEuMzcgMCA0LjExLjg1IDQuMTEgMi41MnYyLjI1YTguNjQgOC42NCAwIDAgMS00LjExIDIuOTNWMjBjNC43MS0xLjE1IDguMjEtNS44OSA4LjIxLTEwLjk1VjMuNDJ6Ii8+JiN4YTs8L3N2Zz4=;" vertex="1" parent="Gsc03Vrimq-xFtg_UPyv-206">
          <mxGeometry x="301.75141876136786" y="504.21485082451613" width="32.63015495960982" height="40.31019143186858" as="geometry" />
        </mxCell>
        <mxCell id="Gsc03Vrimq-xFtg_UPyv-36" value="&lt;span style=&quot;font-weight: normal;&quot;&gt;Secret&lt;br&gt;Manager&lt;/span&gt;" style="sketch=0;html=1;verticalAlign=top;labelPosition=center;verticalLabelPosition=bottom;align=center;spacingTop=-6;fontSize=11;fontStyle=1;fontColor=#999999;shape=image;aspect=fixed;imageAspect=0;image=data:image/svg+xml,PHN2ZyB4bWxucz0iaHR0cDovL3d3dy53My5vcmcvMjAwMC9zdmciIGlkPSJzdmc1MzkzNyIgdmVyc2lvbj0iMS4xIiB2aWV3Qm94PSIwIDAgMTc1LjE2MDYzIDEwNC4yNzczNSIgaGVpZ2h0PSIxMDQuMjc3MzVtbSIgd2lkdGg9IjE3NS4xNjA2M21tIj4mI3hhOyAgPHBhdGggZD0ibSAxMjguNTY5MSwzNC4xMTUyMzYgdiAxMi45Nzg1MTYgbCAtMTIuMzM3ODksLTQuMzgwODYgLTIuNTA5NzcsNy4wNjgzNiAxMi41NDEwMiw0LjQ1MzEyNSAtOC41NjA1NSwxMS40MzE2NCA2LjAwMTk2LDQuNDk2MDk0IDguNTk5NjEsLTExLjQ4MDQ2OSA4LjQ5NDE0LDExLjQ2NDg0NCA2LjAyNzM0LC00LjQ2NDg0NCAtOC40NzI2NiwtMTEuNDMzNTkzIDEyLjY0MDYzLC00LjQ2Njc5NyAtMi41LC03LjA3MDMxMyAtMTIuNDIzODMsNC4zOTA2MjUgViAzNC4xMTUyMzYgWiBtIC00NC43NzY4NzIsMCB2IDEyLjk3ODUxNiBsIC0xMi4zMzc4OTEsLTQuMzgwODYgLTIuNTA5NzY1LDcuMDY4MzYgMTIuNTQxMDE1LDQuNDUzMTI1IC04LjU2MDU0NywxMS40MzE2NCA2LjAwMTk1Myw0LjQ5NjA5NCA4LjU5OTYxLC0xMS40ODA0NjkgOC40OTQxNCwxMS40NjQ4NDQgNi4wMjczNDcsLTQuNDY0ODQ0IC04LjQ3MjY1OSwtMTEuNDMzNTkzIDEyLjY0MDYyOSwtNC40NjY3OTcgLTIuNSwtNy4wNzAzMTMgLTEyLjQyMzgzMiw0LjM5MDYyNSBWIDM0LjExNTIzNiBaIG0gLTQ0Ljc3Njg1LDAgdiAxMi45Nzg1MTYgbCAtMTIuMzM3ODkxLC00LjM4MDg2IC0yLjUwOTc2NSw3LjA2ODM2IDEyLjU0MTAxNSw0LjQ1MzEyNSAtOC41NjA1NDcsMTEuNDMxNjQgNi4wMDE5NTMsNC40OTYwOTQgOC41OTk2MSwtMTEuNDgwNDY5IDguNDk0MTQsMTEuNDY0ODQ0IDYuMDI3MzQ0LC00LjQ2NDg0NCAtOC40NzI2NTYsLTExLjQzMzU5MyAxMi42NDA2MjUsLTQuNDY2Nzk3IC0yLjUsLTcuMDcwMzEzIC0xMi40MjM4MjgsNC4zOTA2MjUgViAzNC4xMTUyMzYgWiBNIDE3NS4xNjA2NCwxMGUtNyBWIDEwNC4yNzczNCBoIC0zNy4yNzY4MiBjIC0xLjIwODU3LDAgLTIuMDAyNDgsLTAuNjIzNTQgLTIuMDAyNDgsLTEuODY2MzQgdiAtOS45MjcyMzggYyAwLC0xLjE0ODI1IDAuNzE1OTYsLTEuNzA2NDIgMi4wMDI0OCwtMS43MDY0MiBoIDIzLjc3NjgyIFYgMTMuNSBoIC0yMy45NDQ5OCBjIC0xLjQwODU1LDAgLTEuOTUxNTEsLTAuNzUyMzE3IC0xLjk1MTUxLC0yLjA3NDQ4MiBWIDEuODQyNzI2IGMgMCwtMS4yNjU5NzEgMC42OTgwOCwtMS44NDI3MjUgMS45NTE1MSwtMS44NDI3MjUgeiBNIDAsMCB2IDEwNC4yNzczNSBoIDM3LjI3NjgxNCBjIDEuMjA4NTcxLDAgMi4wMDI0ODMsLTAuNjIzNTQgMi4wMDI0ODMsLTEuODY2MzQgdiAtOS45MjcyMzggYyAwLC0xLjE0ODI1IC0wLjcxNTk1NywtMS43MDY0MiAtMi4wMDI0ODMsLTEuNzA2NDIgSCAxMy41IFYgMTMuNDk5OTk5IGggMjMuOTQ0OTczIGMgMS40MDg1NTIsMCAxLjk1MTUxMSwtMC43NTIzMTcgMS45NTE1MTEsLTIuMDc0NDgyIFYgMS44NDI3MjUgQyAzOS4zOTY0ODQsMC41NzY3NTQgMzguNjk4NDEsMCAzNy40NDQ5NzMsMCBaIiBzdHlsZT0iY29sb3I6IzAwMDAwMDtvcGFjaXR5OjE7ZmlsbDojNDI4NWY0O2ZpbGwtb3BhY2l0eToxOy1pbmtzY2FwZS1zdHJva2U6bm9uZSIvPiYjeGE7PC9zdmc+;" vertex="1" parent="Gsc03Vrimq-xFtg_UPyv-206">
          <mxGeometry x="351.501655023721" y="509.45877418739866" width="42.000199457665104" height="25.000118724800657" as="geometry" />
        </mxCell>
        <mxCell id="Gsc03Vrimq-xFtg_UPyv-37" value="Cluster&lt;br&gt;GKE" style="editableCssRules=.*;html=1;shape=image;verticalLabelPosition=bottom;labelBackgroundColor=#ffffff;verticalAlign=top;aspect=fixed;imageAspect=0;image=data:image/svg+xml,PHN2ZyB4bWxucz0iaHR0cDovL3d3dy53My5vcmcvMjAwMC9zdmciIHhtbG5zOnY9Imh0dHBzOi8vdmVjdGEuaW8vbmFubyIgd2lkdGg9IjQwMi4zNDMyMDA2ODM1OTM3NSIgaGVpZ2h0PSI0MTYuMDAyNTMyOTU4OTg0NCIgdmlld0JveD0iMCAwLjAwMDQ5OTk2Mzc2MDM3NTk3NjYgNDAyLjM0MzIwMDY4MzU5Mzc1IDQxNi4wMDI1MzI5NTg5ODQ0Ij4mI3hhOwk8c3R5bGUgdHlwZT0idGV4dC9jc3MiPiYjeGE7CS5zdDB7ZmlsbDojNDI4NWY0O30mI3hhOwkuc3Qxe2ZpbGw6IzY2OWRmNjt9JiN4YTsJLnN0MntmaWxsOiNhZWNiZmE7fSYjeGE7CTwvc3R5bGU+JiN4YTsJPHBhdGggY2xhc3M9InN0MiIgZD0iTTM2Ni4xNyA5Mi4wMDNjLTE5LjA1IDAtMzYgMTYuODItMzYgMzUuNzYgMCAxMi42MiA4LjQ2IDI1LjI0IDE5LjA1IDMxLjU1djE0Ny4zbC0xMTAuMDUgNjUuMjEgMTYuOTMgMjcuMzUgMTE4LjUxLTY5LjQyYzQuMjQtMi4xIDguNDctOC40MSA4LjQ3LTE0Ljczdi0xNTUuNjdjMTIuNzEtNi4zNSAxOS4wOS0xOC45MyAxOS4wOS0zMS41NSAyLjA4LTE4Ljk0LTE0Ljg1LTM1LjgtMzYtMzUuOHptLTM4LjExLTIzLjFMMjA5LjU1IDEuNTgzYy00LjI0LTIuMTEtMTAuNTktMi4xMS0xNi45MyAwTDU3LjE3IDc5LjQxM0EzNiAzNiAwIDAgMCAzNiA3My4xMDNjLTE5IDAtMzYgMTYuODMtMzYgMzUuNzZzMTYuOTMgMzUuNzcgMzYgMzUuNzcgMzYtMTYuODMgMzYtMzUuNzdsMTI5LjEtNzMuNjIgMTEwIDYzLjExem0tMTQzLjg5IDI3Ny42OHEtOS41MyAwLTE5IDYuMzFsLTExMC02My4xMXYtMTI2LjIyaC0zNHYxMzQuNjNjMCA2LjMyIDQuMjMgMTIuNjMgOC40NiAxNC43M2wxMTguNTQgNjUuMjF2Mi4xMWMwIDE4LjkzIDE2LjkzIDM1Ljc2IDM2IDM1Ljc2czM2LTE2LjgzIDM2LTM1Ljc2LTE3LTMzLjY2LTM2LTMzLjY2eiIvPiYjeGE7CTxwYXRoIGNsYXNzPSJzdDEiIGQ9Ik05Ny4zOCAxMzYuMjEzbDEwNS44MiA1OC45MSAxMDMuNy01OC45MS0xMDMuNy02MXptLTYuMzUgNjcuMzJsMTEyLjE3IDYzLjExdi01MC40OWwtMTEyLjE3LTY1LjIxem0wIDYzLjExbDExMi4xNyA2NS4yMXYtNDQuMTdsLTExMi4xNy02NS4yMnoiLz4mI3hhOwk8cGF0aCBjbGFzcz0ic3QwIiBkPSJNMjAzLjE3IDIxNi4xMjN2NTAuNTZsMTEyLjE2LTY1LjI5di01MC4zOXptOTItMjBhOC4xNiA4LjE2IDAgMSAxIDguMTYtOC4xNiA4LjE5IDguMTkgMCAwIDEtOC4xNiA4LjE2em0tOTIgOTEuNTJ2NDQuMTZsMTEyLjE2LTY1LjEydi00NC4xNnptOTItMjIuODhhOC4xNiA4LjE2IDAgMSAxIDguMTYtOC4xNiA4LjE5IDguMTkgMCAwIDEtOC4xNiA4LjE2eiIvPiYjeGE7PC9zdmc+;" vertex="1" parent="Gsc03Vrimq-xFtg_UPyv-206">
          <mxGeometry x="415.5019589592107" y="501.820226861119" width="34.64016450508379" height="36.4701731957392" as="geometry" />
        </mxCell>
        <mxCell id="Gsc03Vrimq-xFtg_UPyv-38" value="K8S" style="editableCssRules=.*;html=1;shape=image;verticalLabelPosition=bottom;labelBackgroundColor=#ffffff;verticalAlign=top;aspect=fixed;imageAspect=0;image=data:image/svg+xml,PHN2ZyB4bWxucz0iaHR0cDovL3d3dy53My5vcmcvMjAwMC9zdmciIHhtbG5zOnY9Imh0dHBzOi8vdmVjdGEuaW8vbmFubyIgd2lkdGg9IjMyOS45MjU5OTcyMzE3OTM4IiBoZWlnaHQ9IjM3OC4yODQ5OTAzMTEyNzg4IiB2aWV3Qm94PSIwIDAgODcuMjkyOTk5MjY3NTc4MTIgMTAwLjA4Nzk5NzQzNjUyMzQ0Ij4mI3hhOzxzdHlsZSB0eXBlPSJ0ZXh0L2NzcyI+JiN4YTsJLnN0MHtmaWxsOiNhZWNiZmE7fSYjeGE7CS5zdDF7ZmlsbDojNjY5ZGY2O30mI3hhOwkuc3Qye2ZpbGw6IzQyODVmNDt9JiN4YTs8L3N0eWxlPiYjeGE7CTxwYXRoIGNsYXNzPSJzdDAiIGQ9Ik00My43NTEgMEwwIDI1LjQ2NXYyLjU4OCA0Ni45Mmw0My43NTIgMjUuMTE1IDQzLjU0MS0yNS4xMjFWMjUuNDczem0yLjQzOCAxMS44NTNsMzIuMTAzIDE4Ljc4MlY2OS43N0w0My43MzkgODkuNzA1IDkgNjkuNzYyVjMwLjY0MWwzMi4xOS0xOC43MzZ2MTQuMTU0TDI0LjUwMyAzNi4xNTNsMTkuMTcyIDExLjUwMiAxOC44ODYtMTEuNTU0LTE2LjM3Mi0xMC4wMjR6Ii8+JiN4YTsJPHBhdGggY2xhc3M9InN0MSIgZD0iTTIyLjAyNSA0MC40OTZsLjE2NiAxOS4xNDMtMTMuMjQ3IDcuMzN2Mi43NDJsMi42MzcgMS41MTQgMTIuNjQ4LTYuOTk5IDE2Ljk2MSAxMC42MDJWNTEuOTkzeiIvPiYjeGE7CTxwYXRoIGNsYXNzPSJzdDIiIGQ9Ik02NS4zNDQgNDAuMjZMNDYuMTg5IDUxLjk3OXYyMi44NDdsMTYuODk5LTEwLjU3NiAxMi41MzkgNi45NzQgMi42MDktMS41MDV2LTIuNzY1bC0xMi43ODQtNy4xMTJ6Ii8+JiN4YTs8L3N2Zz4=;" vertex="1" parent="Gsc03Vrimq-xFtg_UPyv-206">
          <mxGeometry x="470.5022201537722" y="504.21485082451613" width="34.8401654548822" height="40.99019466118316" as="geometry" />
        </mxCell>
        <mxCell id="Gsc03Vrimq-xFtg_UPyv-39" value="GSC&amp;nbsp;&lt;div&gt;Cloud Storage&lt;div&gt;STG Layer&lt;/div&gt;&lt;/div&gt;" style="editableCssRules=.*;html=1;shape=image;verticalLabelPosition=bottom;labelBackgroundColor=#ffffff;verticalAlign=top;aspect=fixed;imageAspect=0;image=data:image/svg+xml,PHN2ZyB4bWxucz0iaHR0cDovL3d3dy53My5vcmcvMjAwMC9zdmciIHhtbG5zOnY9Imh0dHBzOi8vdmVjdGEuaW8vbmFubyIgd2lkdGg9IjIwIiBoZWlnaHQ9IjE2IiB2aWV3Qm94PSIwIDAgMjAgMTYiPiYjeGE7CTxzdHlsZSB0eXBlPSJ0ZXh0L2NzcyI+JiN4YTsJLnN0MHtmaWxsOiM0Mjg1ZjQ7fSYjeGE7CS5zdDF7ZmlsbDojNjY5ZGY2O30mI3hhOwkuc3Qye2ZpbGw6I2FlY2JmYTt9JiN4YTsJLnN0M3tmaWxsOiNmZmY7fSYjeGE7CTwvc3R5bGU+JiN4YTsJPHBhdGggY2xhc3M9InN0MiIgZD0iTTAgMGgyMHY3SDB6Ii8+JiN4YTsJPHBhdGggY2xhc3M9InN0MSIgZD0iTTE4IDBoMnY3aC0yeiIvPiYjeGE7CTxwYXRoIGNsYXNzPSJzdDAiIGQ9Ik0xOCA3bDItN2gtMnoiLz4mI3hhOwk8cGF0aCBjbGFzcz0ic3QxIiBkPSJNMCAwaDJ2N0gweiIvPiYjeGE7CTxnIGNsYXNzPSJzdDMiPiYjeGE7CQk8cGF0aCBkPSJNNCAzaDZ2MUg0eiIvPiYjeGE7CQk8cmVjdCB4PSIxMyIgeT0iMiIgd2lkdGg9IjMiIGhlaWdodD0iMyIgcng9IjEuNSIvPiYjeGE7CTwvZz4mI3hhOwk8cGF0aCBjbGFzcz0ic3QyIiBkPSJNMCA5aDIwdjdIMHoiLz4mI3hhOwk8cGF0aCBjbGFzcz0ic3QxIiBkPSJNMTggOWgydjdoLTJ6Ii8+JiN4YTsJPHBhdGggY2xhc3M9InN0MCIgZD0iTTE4IDE2bDItN2gtMnoiLz4mI3hhOwk8cGF0aCBjbGFzcz0ic3QxIiBkPSJNMCA5aDJ2N0gweiIvPiYjeGE7CTxnIGNsYXNzPSJzdDMiPiYjeGE7CQk8cGF0aCBkPSJNNCAxMmg2djFINHoiLz4mI3hhOwkJPHJlY3QgeD0iMTMiIHk9IjExIiB3aWR0aD0iMyIgaGVpZ2h0PSIzIiByeD0iMS41Ii8+JiN4YTsJPC9nPiYjeGE7PC9zdmc+;" vertex="1" parent="Gsc03Vrimq-xFtg_UPyv-206">
          <mxGeometry x="518.0024457308937" y="298.21656658087886" width="41.00019470867308" height="32.00015196774484" as="geometry" />
        </mxCell>
        <mxCell id="Gsc03Vrimq-xFtg_UPyv-40" value="Cloud Compose" style="editableCssRules=.*;html=1;shape=image;verticalLabelPosition=bottom;labelBackgroundColor=#ffffff;verticalAlign=top;aspect=fixed;imageAspect=0;image=data:image/svg+xml,PHN2ZyB4bWxucz0iaHR0cDovL3d3dy53My5vcmcvMjAwMC9zdmciIHhtbG5zOnY9Imh0dHBzOi8vdmVjdGEuaW8vbmFubyIgd2lkdGg9IjE0LjY0MDAwMDM0MzMyMjc1NCIgaGVpZ2h0PSIyMCIgdmlld0JveD0iMCAwIDE0LjY0MDAwMDM0MzMyMjc1NCAyMCI+JiN4YTsJPHN0eWxlIHR5cGU9InRleHQvY3NzIj4mI3hhOwkuc3Qwe2ZpbGw6I2FlY2JmYTt9JiN4YTsJLnN0MXtmaWxsOiM0Mjg1ZjQ7fSYjeGE7CTwvc3R5bGU+JiN4YTsJPHBhdGggY2xhc3M9InN0MCIgZD0iTTAgMGgxNC42M3YzLjk0aC01LjN2NS4zM0g1LjM1VjMuOTZIMHoiLz4mI3hhOwk8cGF0aCBjbGFzcz0ic3QxIiBkPSJNMy45NSAxMC42N2g1LjM0VjIwSDUuMzV2LTUuMzVIMFY1LjM3aDMuOTV6TTE0LjY0IDIwSDEwLjdWNS4zNmgzLjk0eiIvPiYjeGE7CTxwYXRoIGNsYXNzPSJzdDAiIGQ9Ik0wIDE2LjA2aDMuOTJWMjBIMHoiLz4mI3hhOzwvc3ZnPg==;" vertex="1" parent="Gsc03Vrimq-xFtg_UPyv-206">
          <mxGeometry x="591.7027957316059" y="509.2668001143836" width="30.00014246976079" height="40.00018995968105" as="geometry" />
        </mxCell>
        <mxCell id="Gsc03Vrimq-xFtg_UPyv-41" value="Data Catalog" style="editableCssRules=.*;html=1;shape=image;verticalLabelPosition=bottom;labelBackgroundColor=#ffffff;verticalAlign=top;aspect=fixed;imageAspect=0;image=data:image/svg+xml,PHN2ZyB4bWxucz0iaHR0cDovL3d3dy53My5vcmcvMjAwMC9zdmciIHhtbG5zOnY9Imh0dHBzOi8vdmVjdGEuaW8vbmFubyIgd2lkdGg9IjM3Ni4yNzQ4ODc3NTcyNjMyIiBoZWlnaHQ9IjMzOS42NzM1NDQyMTc3NjM4MyIgdmlld0JveD0iMC4xMTQwMDAwMDAwNTk2MDQ2NCAtMC4wOTAwMDAwMDM1NzYyNzg2OSA5OS41NTU5OTk3NTU4NTkzOCA4OS44NzE5OTQwMTg1NTQ2OSI+JiN4YTs8c3R5bGUgdHlwZT0idGV4dC9jc3MiPiYjeGE7CS5zdDB7ZmlsbDojNDI4NWY0O30mI3hhOwkuc3Qxe2ZpbGw6I2FlY2JmYTt9JiN4YTs8L3N0eWxlPiYjeGE7CTxwYXRoIGNsYXNzPSJzdDAiIGQ9Ik03Ny41MjMgNDMuMzk3bDEyLjg0NCA3LjU3MnYxNC43NjdsLTEyLjg0NCA2LjY4ek01MC4zMTItLjA5bDEyLjg0NCA3LjU3MnYxNC43NjdsLTEyLjg0NCA2LjY4ek0yMy4xIDQzLjM5N2wxMi44NDQgNy41NzJ2MTQuNzY3TDIzLjEgNzIuNDE3em02OS40Ny0uNTExbDcuMS0xMS4xNjktMTIuNjY2LTIxLjU5NEg3MC42NDR2OS41aDEwLjkxOWw2Ljk3NyAxMS44OTUtNC4yNTYgNi42OTR6bS03Ni45NzktNC42TDExLjMgMzEuNDg1bDcuMjY0LTExLjg2MWg5Ljk3OWwuMDk5LTkuNUgxMy4yNDFMLjExNCAzMS41NjFsMS41NzYgMi40OTggNS41MTUgOC43Mzl6bTEzLjY2MiAzOS40NDlsNy42MDMgMTIuMDQ3aDI1LjkwMmw3LjczMy0xMi4xNjQtOC4xNDMtNC44OTktNC44MDggNy41NjRINDIuMDk1bC00Ljc0LTcuNTExeiIvPiYjeGE7CTxwYXRoIGNsYXNzPSJzdDEiIGQ9Ik03Ny41MjMgNDMuMzk3bC0xMi44NDQgNy41NzJ2MTQuNzY3bDEyLjg0NCA2LjY4ek01MC4zMTItLjA5TDM3LjQ2OCA3LjQ4MnYxNC43NjdsMTIuODQ0IDYuNjh6TTIzLjEgNDMuMzk3bC0xMi44NDQgNy41NzJ2MTQuNzY3bDEyLjg0NCA2LjY4eiIvPiYjeGE7PC9zdmc+;" vertex="1" parent="Gsc03Vrimq-xFtg_UPyv-206">
          <mxGeometry x="685.8332427542255" y="511.2875798303306" width="40.00018995968105" height="36.00017096371295" as="geometry" />
        </mxCell>
        <mxCell id="Gsc03Vrimq-xFtg_UPyv-42" value="Pub Sub&lt;div&gt;/Apache Kafka&lt;/div&gt;" style="editableCssRules=.*;html=1;shape=image;verticalLabelPosition=bottom;labelBackgroundColor=#ffffff;verticalAlign=top;aspect=fixed;imageAspect=0;image=data:image/svg+xml,PHN2ZyB4bWxucz0iaHR0cDovL3d3dy53My5vcmcvMjAwMC9zdmciIHhtbG5zOnY9Imh0dHBzOi8vdmVjdGEuaW8vbmFubyIgd2lkdGg9IjE4LjMxOTk5OTY5NDgyNDIyIiBoZWlnaHQ9IjIwLjAwMDAwMTkwNzM0ODYzMyIgdmlld0JveD0iMCAwIDE4LjMxOTk5OTY5NDgyNDIyIDIwLjAwMDAwMTkwNzM0ODYzMyI+JiN4YTsJPHN0eWxlIHR5cGU9InRleHQvY3NzIj4mI3hhOwkuc3Qwe2ZpbGw6IzY2OWRmNjt9JiN4YTsJLnN0MXtmaWxsOiM0Mjg1ZjQ7fSYjeGE7CS5zdDJ7ZmlsbDojYWVjYmZhO30mI3hhOwk8L3N0eWxlPiYjeGE7CTxkZWZzPiYjeGE7CQk8ZmlsdGVyIGlkPSJBIiB4PSI0LjY0IiB5PSI0LjE5IiB3aWR0aD0iMTQuNzMiIGhlaWdodD0iMTIuNzYiIGZpbHRlclVuaXRzPSJ1c2VyU3BhY2VPblVzZSIgY29sb3ItaW50ZXJwb2xhdGlvbi1maWx0ZXJzPSJzUkdCIj4mI3hhOwkJCTxmZUZsb29kIGZsb29kLWNvbG9yPSIjZmZmIi8+JiN4YTsJCQk8ZmVCbGVuZCBpbj0iU291cmNlR3JhcGhpYyIvPiYjeGE7CQk8L2ZpbHRlcj4mI3hhOwkJPG1hc2sgaWQ9IkIiIHg9IjQuNjQiIHk9IjQuMTkiIHdpZHRoPSIxNC43MyIgaGVpZ2h0PSIxMi43NiIgbWFza1VuaXRzPSJ1c2VyU3BhY2VPblVzZSI+JiN4YTsJCQk8Y2lyY2xlIGN4PSIxMiIgY3k9IjEyLjIzIiByPSIzLjU4IiBmaWx0ZXI9InVybCgjQSkiLz4mI3hhOwkJPC9tYXNrPiYjeGE7CTwvZGVmcz4mI3hhOwk8ZyBjbGFzcz0ic3QwIj4mI3hhOwkJPGNpcmNsZSBjeD0iMTYuMTMiIGN5PSI2LjIxIiByPSIxLjcyIi8+JiN4YTsJCTxjaXJjbGUgY3g9IjIuMTkiIGN5PSI2LjIxIiByPSIxLjcyIi8+JiN4YTsJCTxjaXJjbGUgY3g9IjkuMTYiIGN5PSIxOC4yOCIgcj0iMS43MiIvPiYjeGE7CTwvZz4mI3hhOwk8ZyBtYXNrPSJ1cmwoI0IpIiB0cmFuc2Zvcm09InRyYW5zbGF0ZSgtMi44NCAtMikiPiYjeGE7CQk8cGF0aCB0cmFuc2Zvcm09Im1hdHJpeCguNSAtLjg3IC44NyAuNSAtNC41OSAyMC41MykiIGQ9Ik0xNC42OSAxMC4yMmgxLjU5djguMDRoLTEuNTl6IiBjbGFzcz0ic3QxIi8+JiN4YTsJCTxwYXRoIHRyYW5zZm9ybT0icm90YXRlKDMzMCA4LjUyMyAxNC4yNDQpIiBkPSJNNC40OSAxMy40NWg4LjA0djEuNTlINC40OXoiIGNsYXNzPSJzdDEiLz4mI3hhOwkJPHBhdGggZD0iTTExLjIgNC4xOWgxLjU5djguMDRIMTEuMnoiIGNsYXNzPSJzdDEiLz4mI3hhOwk8L2c+JiN4YTsJPGcgY2xhc3M9InN0MiI+JiN4YTsJCTxjaXJjbGUgY3g9IjkuMTYiIGN5PSIxMC4yMyIgcj0iMi43OCIvPiYjeGE7CQk8Y2lyY2xlIGN4PSIyLjE5IiBjeT0iMTQuMjUiIHI9IjIuMTkiLz4mI3hhOwkJPGNpcmNsZSBjeD0iMTYuMTMiIGN5PSIxNC4yNSIgcj0iMi4xOSIvPiYjeGE7CQk8Y2lyY2xlIGN4PSI5LjE2IiBjeT0iMi4xOSIgcj0iMi4xOSIvPiYjeGE7CTwvZz4mI3hhOzwvc3ZnPg==;" vertex="1" parent="Gsc03Vrimq-xFtg_UPyv-206">
          <mxGeometry x="373.0017571270496" y="251.37489276522726" width="36.00017096371295" height="40.00018995968105" as="geometry" />
        </mxCell>
        <mxCell id="Gsc03Vrimq-xFtg_UPyv-43" value="&lt;span style=&quot;font-weight: normal;&quot;&gt;Integration&lt;br&gt;Connectors&lt;/span&gt;" style="sketch=0;html=1;verticalAlign=top;labelPosition=center;verticalLabelPosition=bottom;align=center;spacingTop=-6;fontSize=11;fontStyle=1;fontColor=#999999;shape=image;aspect=fixed;imageAspect=0;image=data:image/svg+xml,PHN2ZyB4bWxucz0iaHR0cDovL3d3dy53My5vcmcvMjAwMC9zdmciIGlkPSJzdmc1IiB2ZXJzaW9uPSIxLjEiIHZpZXdCb3g9IjAgMCAxNTUuMzAyNzMgMTU1LjI4NjI0IiBoZWlnaHQ9IjE1NS4yODYyNG1tIiB3aWR0aD0iMTU1LjMwMjczbW0iPiYjeGE7ICA8ZGVmcyBpZD0iZGVmczExIi8+JiN4YTsgICYjeGE7ICA8cGF0aCBpZD0icGF0aDIiIGQ9Im0gODUuNjkzNDkzLDM4Ljc2Nzg3MiB2IDIzLjExMTY5IGggMTUuNDk5OTk3IHYgLTIzLjExMTY5IHogbSAtMzEuMTYyMjQzLDAgdiAyMy4xMTE2OSBoIDE1LjUgViAzOC43Njc4NzIgWiBNIDc3Ljg4ODY3MywxLjI1MjczOTVlLTYgQyAzNi4wMTM5MTksMS4yNTI3Mzk1ZS02IDAsMzMuOTc2MDAyIDAsNzcuMTc1NzgyIGMgMCwxNi40MzUxNiA1LjU2OTc5MywzNS4yMDgxNjggMTguMjE0ODQ0LDUwLjMzMzk3OCA3LjE3NDIyNiw4LjU4MTcgMTYuNzM1MTU5LDE1Ljg1MDc5IDI4LjU4MTk1OSwyMC41MzQzMiBsIC0wLjAxODY3LC0xNi4zMTg3IEMgMzkuODgxMjQ1LDEyOC4xMjYxOSAzNC4yODI2MTEsMTIzLjM0MzIxIDI5LjcyMjY1NywxMTcuODg4NjcgMTkuNjY0NzU3LDEwNS44NTc1NyAxNS4wMDAwMDEsOTAuMTI4MjEyIDE1LDc3LjE3NTc4MiAxNSw0Mi4zMjA0MjIgNDQuMTE2NjM4LDE1LjAwMDAwMSA3Ny44ODg2NzMsMTUuMDAwMDAxIFoiIHN0eWxlPSJjb2xvcjojMDAwMDAwO29wYWNpdHk6MTtmaWxsOiNhZWNiZmE7ZmlsbC1vcGFjaXR5OjE7LWlua3NjYXBlLXN0cm9rZTpub25lIi8+JiN4YTsgIDxwYXRoIGlkPSJwYXRoNCIgZD0ibSA3OC4wMzIxNjMsMTI0LjQ1MTk0IGMgLTIxLjQ0NjI4NSwwIC0zOS4yODY3MjYsLTE2LjM3NzY5IC0zOS4yODY3MjYsLTQwLjY4ODU3OCBsIDAuMjA3NzYyLC0yMS44ODM4IGggMzkuMDc4OTY0IHoiIHN0eWxlPSJvcGFjaXR5OjE7ZmlsbDojNjY5ZGY2O2ZpbGwtb3BhY2l0eToxO3N0cm9rZTpub25lO3N0cm9rZS13aWR0aDowLjI2NDU4M3B4O3N0cm9rZS1saW5lY2FwOmJ1dHQ7c3Ryb2tlLWxpbmVqb2luOm1pdGVyO3N0cm9rZS1vcGFjaXR5OjEiLz4mI3hhOyAgPHBhdGggaWQ9InBhdGg2IiBkPSJtIDc4LjAzMjE2MSw2MS44Nzk1NjcgdiA2Mi41NzIzNzMgYyAtMi43Mzc3MzksMCAtNS40MTYxNCwtMC4yNjg3NSAtOC4wMDY3NDcsLTAuNzg0OTYgdiAzMS42MTkyNiBIIDg1LjYwOTQ3NSBWIDEyMy40MDM0MyBDIDEwNi42NDQyLDExOC44ODQzNCAxMTYuOTIwMjMsMTAwLjY5NzE2IDExNi45MjAyMyw4My45NDMzMDUgViA2MS44Nzk1NjcgWiBNIDc3Ljg4ODY3MiwwIHYgMTUuMDAwMDAyIGMgMzAuOTM1OTU4LDAgNjIuNDE0MDU4LDIzLjk3MTE5OSA2Mi40MTQwNTgsNjQuMDgyMDI5IDAsMTAuMzkyNTcxIC00LjM1NTU1LDI1Ljg4NzQwOSAtMTQuMjc5MywzOC4wNzAzMDkgLTQuNTQ3NTUsNS41ODI4IC0xMC4xNTk2MiwxMC41NzAzNyAtMTcuMTQ0MzcsMTQuMzM1ODkgbCAwLjEzNTQ0LDE2LjMyODcyIGMgMTIuMDExNjQsLTQuOTE0NDUgMjEuNTY3NDQsLTEyLjUwNzYyIDI4LjYzOTc5LC0yMS4xOSBDIDE1MC4wMzMsMTExLjQzMDIyIDE1NS4zMDI3Myw5My4zNzM2NjEgMTU1LjMwMjczLDc5LjA4MjAzMSAxNTUuMzAyNzMsMzEuMDIzOTA0IDExNi43MDgzMywwIDc3Ljg4ODY3MiwwIFoiIHN0eWxlPSJvcGFjaXR5OjE7ZmlsbDojNDI4NWY0O2ZpbGwtb3BhY2l0eToxO3N0cm9rZTpub25lO3N0cm9rZS13aWR0aDowLjI2NDU4M3B4O3N0cm9rZS1saW5lY2FwOmJ1dHQ7c3Ryb2tlLWxpbmVqb2luOm1pdGVyO3N0cm9rZS1vcGFjaXR5OjEiLz4mI3hhOzwvc3ZnPg==;" vertex="1" parent="Gsc03Vrimq-xFtg_UPyv-206">
          <mxGeometry x="223.16104553808418" y="322.3244685921265" width="24.250115163056638" height="24.250115163056638" as="geometry" />
        </mxCell>
        <mxCell id="Gsc03Vrimq-xFtg_UPyv-44" value="&lt;font color=&quot;#4284f3&quot; style=&quot;font-size: 16px;&quot;&gt;Integration&lt;/font&gt;" style="text;strokeColor=none;fillColor=none;html=1;fontSize=24;fontStyle=1;verticalAlign=middle;align=center;movable=1;resizable=1;rotatable=1;deletable=1;editable=1;locked=0;connectable=1;" vertex="1" parent="Gsc03Vrimq-xFtg_UPyv-206">
          <mxGeometry x="185.11086483893814" y="109.63740348870458" width="110.00052238912289" height="24.24935659136402" as="geometry" />
        </mxCell>
        <mxCell id="Gsc03Vrimq-xFtg_UPyv-45" value="&lt;font color=&quot;#4284f3&quot; style=&quot;font-size: 16px;&quot;&gt;Monitoring&lt;/font&gt;" style="text;strokeColor=none;fillColor=none;html=1;fontSize=24;fontStyle=1;verticalAlign=middle;align=center;movable=1;resizable=1;rotatable=1;deletable=1;editable=1;locked=0;connectable=1;" vertex="1" parent="Gsc03Vrimq-xFtg_UPyv-206">
          <mxGeometry x="103.0004748992028" y="454.5541893051187" width="110.00052238912289" height="45.46754360880754" as="geometry" />
        </mxCell>
        <mxCell id="Gsc03Vrimq-xFtg_UPyv-46" value="" style="rounded=1;whiteSpace=wrap;html=1;rotation=90;strokeColor=#4284F3;fillColor=none;movable=1;resizable=1;rotatable=1;deletable=1;editable=1;locked=0;connectable=1;" vertex="1" parent="Gsc03Vrimq-xFtg_UPyv-206">
          <mxGeometry x="115.01053193459711" y="440.0449909446191" width="90.00042740928237" height="194.96482699456675" as="geometry" />
        </mxCell>
        <mxCell id="Gsc03Vrimq-xFtg_UPyv-47" value="&lt;span style=&quot;font-weight: normal;&quot;&gt;Cloud&lt;br&gt;Logging&lt;/span&gt;" style="sketch=0;html=1;verticalAlign=top;labelPosition=center;verticalLabelPosition=bottom;align=center;spacingTop=-6;fontSize=11;fontStyle=1;fontColor=#999999;shape=image;aspect=fixed;imageAspect=0;image=data:image/svg+xml,PHN2ZyB4bWxucz0iaHR0cDovL3d3dy53My5vcmcvMjAwMC9zdmciIHhtbG5zOnY9Imh0dHBzOi8vdmVjdGEuaW8vbmFubyIgd2lkdGg9IjIwIiBoZWlnaHQ9IjE5IiB2aWV3Qm94PSIwIDAgMjAgMTkiPiYjeGE7CTxzdHlsZSB0eXBlPSJ0ZXh0L2NzcyI+JiN4YTsJLnN0MHtmaWxsOiM0Mjg1ZjQ7fSYjeGE7CS5zdDF7ZmlsbDojNjY5ZGY2O30mI3hhOwkuc3Qye2ZpbGw6I2FlY2JmYTt9JiN4YTsJPC9zdHlsZT4mI3hhOwk8ZyBjbGFzcz0ic3QwIj4mI3hhOwkJPHBhdGggZD0iTTQgOWg0djJINHptLTIgN2g2djJIMnoiLz4mI3hhOwkJPHBhdGggZD0iTTQgNEgydjEyaDJ6Ii8+JiN4YTsJPC9nPiYjeGE7CTxwYXRoIGNsYXNzPSJzdDEiIGQ9Ik0yMCAxSDd2NGgxM3ptMCA3SDd2NGgxM3ptMCA3SDd2NGgxM3oiLz4mI3hhOwk8cGF0aCBjbGFzcz0ic3QyIiBkPSJNNiAwSDB2Nmg2eiIvPiYjeGE7PC9zdmc+;" vertex="1" parent="Gsc03Vrimq-xFtg_UPyv-206">
          <mxGeometry x="86.50039654083412" y="502.1940711085691" width="42.000199457665104" height="40.00018995968105" as="geometry" />
        </mxCell>
        <mxCell id="Gsc03Vrimq-xFtg_UPyv-48" value="&lt;span style=&quot;font-weight: normal;&quot;&gt;Cloud&lt;br&gt;Monitoring&lt;/span&gt;" style="sketch=0;html=1;verticalAlign=top;labelPosition=center;verticalLabelPosition=bottom;align=center;spacingTop=-6;fontSize=11;fontStyle=1;fontColor=#999999;shape=image;aspect=fixed;imageAspect=0;image=data:image/svg+xml,PHN2ZyB4bWxucz0iaHR0cDovL3d3dy53My5vcmcvMjAwMC9zdmciIHhtbG5zOnY9Imh0dHBzOi8vdmVjdGEuaW8vbmFubyIgd2lkdGg9IjIwIiBoZWlnaHQ9IjEzLjUyOTk5OTczMjk3MTE5MSIgdmlld0JveD0iLTIuOTMyMDk3ODk3ODEyMDE0ZS05IC01LjI1ODAxNTA0MTgzNzk1NmUtMTUgMjAgMTMuNTI5OTk5NzMyOTcxMTkxIj4mI3hhOwk8c3R5bGUgdHlwZT0idGV4dC9jc3MiPiYjeGE7CS5zdDB7ZmlsbDojNDI4NWY0O30mI3hhOwkuc3Qxe2ZpbGw6IzY2OWRmNjt9JiN4YTsJPC9zdHlsZT4mI3hhOwk8cGF0aCBjbGFzcz0ic3QxIiBkPSJNOC44MyAxMC41OGgyLjMzdjIuNjRIOC44M3oiLz4mI3hhOwk8cGF0aCBjbGFzcz0ic3QwIiBkPSJNMTYuNDggOC42MWEuNTYuNTYgMCAwIDEtLjQtLjE3TDEyIDQuMjEgOS4yNiA3LjFhLjU3LjU3IDAgMCAxLS43Ni4wNUw2LjQyIDUuNDdsLTIuMiAyLjkyYS41Ni41NiAwIDAgMS0uNDUuMjJIMHYxLjcxYS43NS43NSAwIDAgMCAuNzQuNzVoMTguNTJhLjc1Ljc1IDAgMCAwIC43NC0uNzVWOC42MXoiLz4mI3hhOwk8cGF0aCBjbGFzcz0ic3QxIiBkPSJNMy41IDcuNWwyLjM4LTMuMTZhLjU1LjU1IDAgMCAxIC4zNy0uMjIuNjMuNjMgMCAwIDEgLjQyLjEybDIuMTIgMS43MiAyLjgtMi45NGEuNTQuNTQgMCAwIDEgLjQtLjE3aDBhLjU0LjU0IDAgMCAxIC40LjE3bDQuMzMgNC40OEgyMFYuNzRhLjc0Ljc0IDAgMCAwLS43NC0uNzRILjc0QS43NC43NCAwIDAgMCAwIC43NHY2LjgxeiIvPiYjeGE7CTxyZWN0IGNsYXNzPSJzdDAiIHg9IjYuNjciIHk9IjEyLjkyIiB3aWR0aD0iNi42NyIgaGVpZ2h0PSIuNjEiIHJ4PSIuMyIvPiYjeGE7PC9zdmc+;" vertex="1" parent="Gsc03Vrimq-xFtg_UPyv-206">
          <mxGeometry x="171.0007978306603" y="509.9336574206462" width="42.000199457665104" height="29.000137720768763" as="geometry" />
        </mxCell>
        <mxCell id="Gsc03Vrimq-xFtg_UPyv-49" value="" style="edgeStyle=orthogonalEdgeStyle;fontSize=12;html=1;endArrow=blockThin;endFill=1;rounded=0;strokeWidth=2;endSize=4;startSize=4;dashed=0;strokeColor=#4284F3;exitX=0.5;exitY=0;exitDx=0;exitDy=0;entryX=0.5;entryY=1;entryDx=0;entryDy=0;" edge="1" parent="Gsc03Vrimq-xFtg_UPyv-206" source="Gsc03Vrimq-xFtg_UPyv-5" target="Gsc03Vrimq-xFtg_UPyv-6">
          <mxGeometry width="100" relative="1" as="geometry">
            <mxPoint x="273.00128222784724" y="304.955866933562" as="sourcePoint" />
            <mxPoint x="373.0017571270496" y="304.955866933562" as="targetPoint" />
          </mxGeometry>
        </mxCell>
        <mxCell id="Gsc03Vrimq-xFtg_UPyv-50" value="" style="edgeStyle=orthogonalEdgeStyle;fontSize=12;html=1;endArrow=blockThin;endFill=1;rounded=0;strokeWidth=2;endSize=4;startSize=4;dashed=0;strokeColor=#4284F3;exitX=0.5;exitY=0;exitDx=0;exitDy=0;entryX=0.5;entryY=1;entryDx=0;entryDy=0;" edge="1" parent="Gsc03Vrimq-xFtg_UPyv-206" source="Gsc03Vrimq-xFtg_UPyv-4" target="Gsc03Vrimq-xFtg_UPyv-5">
          <mxGeometry width="100" relative="1" as="geometry">
            <mxPoint x="305.0014341955921" y="296.0543322848155" as="sourcePoint" />
            <mxPoint x="339.0015956613206" y="296.0543322848155" as="targetPoint" />
          </mxGeometry>
        </mxCell>
        <mxCell id="Gsc03Vrimq-xFtg_UPyv-51" value="&lt;span style=&quot;font-weight: normal;&quot;&gt;Workflows&lt;/span&gt;" style="sketch=0;html=1;verticalAlign=top;labelPosition=center;verticalLabelPosition=bottom;align=center;spacingTop=-6;fontSize=11;fontStyle=1;fontColor=#999999;shape=image;aspect=fixed;imageAspect=0;image=data:image/svg+xml,PHN2ZyB4bWxucz0iaHR0cDovL3d3dy53My5vcmcvMjAwMC9zdmciIHhtbG5zOnhsaW5rPSJodHRwOi8vd3d3LnczLm9yZy8xOTk5L3hsaW5rIiB4bWxuczp2PSJodHRwczovL3ZlY3RhLmlvL25hbm8iIHdpZHRoPSIxOS41MSIgaGVpZ2h0PSIxOS41IiB2aWV3Qm94PSIwIDAgMTkuNTEgMTkuNSI+JiN4YTsJPHBhdGggZD0iTTE3LjI2IDE3LjgxaC0uN3YtMS41aC43YS43Ni43NiAwIDAgMCAuNzUtLjc1di00LjMxYS43Ni43NiAwIDAgMC0uNzUtLjc1aC0zLjYxVjloMy42MWEyLjI1IDIuMjUgMCAwIDEgMi4yNSAyLjI1djQuMzFhMi4yNSAyLjI1IDAgMCAxLTIuMjUgMi4yNXptLTcuOTUgMGgtNC45di0xLjVoNC45eiIgZmlsbD0iIzQyODVmNCIvPiYjeGE7CTxwYXRoIGZpbGw9IiM2NjlkZjYiIGZpbGwtcnVsZT0iZXZlbm9kZCIgZD0iTTUuODggMTAuNUgyLjI2QTIuMjUgMi4yNSAwIDAgMSAuMDEgOC4yNVYzLjk0YTIuMjUgMi4yNSAwIDAgMSAyLjI1LTIuMjVoMXYxLjVoLTFhLjc1Ljc1IDAgMCAwLS43NS43NXY0LjMxYS43Ni43NiAwIDAgMCAuNzUuNzVoMy42MnoiLz4mI3hhOwk8cGF0aCBmaWxsPSIjNDI4NWY0IiBkPSJNMTUuMDYgMy4xOUg5LjU4di0xLjVoNS40OHoiLz4mI3hhOwk8cGF0aCBmaWxsPSIjYWVjYmZhIiBkPSJNNi4zOSAxLjY5Vi4xOWgtM2ExLjEzIDEuMTMgMCAwIDAtMS4xMyAxLjEydjIuMjVhMS4xMyAxLjEzIDAgMCAwIDEuMTMgMS4xM2gzdi0xLjVIMy43NnYtMS41eiIvPiYjeGE7CTxwYXRoIGZpbGw9IiM2NjlkZjYiIGZpbGwtcnVsZT0iZXZlbm9kZCIgZD0iTTEwLjUxIDEuMzF2Mi4yNWExLjEzIDEuMTMgMCAwIDEtMS4xMiAxLjEzaC0zdi0xLjVoMi42MnYtMS41SDYuMzlWLjE5aDNhMS4xMiAxLjEyIDAgMCAxIDEuMTIgMS4xMnoiLz4mI3hhOwk8cGF0aCBmaWxsPSIjYWVjYmZhIiBkPSJNMTcuMDcgNC44OGEyLjQ0IDIuNDQgMCAxIDEgMi40NC0yLjQ0IDIuNDUgMi40NSAwIDAgMS0yLjQ0IDIuNDR6bTAtMy4zOGEuOTQuOTQgMCAxIDAgLjk0Ljk0Ljk0Ljk0IDAgMCAwLS45NC0uOTR6Ii8+JiN4YTsJPHVzZSB4bGluazpocmVmPSIjQiIgZmlsbD0iIzlhYTBhNiIvPiYjeGE7CTxnIGZpbGw9IiNhZWNiZmEiPiYjeGE7CQk8dXNlIHhsaW5rOmhyZWY9IiNCIi8+JiN4YTsJCTxwYXRoIGQ9Ik0xMy4xMiAxNi4zMnYtMS41aC0zQTEuMTMgMS4xMyAwIDAgMCA5IDE1Ljk1djIuMjVhMS4xMiAxLjEyIDAgMCAwIDEuMTIgMS4xMmgzdi0xLjVIMTAuNXYtMS41eiIvPiYjeGE7CTwvZz4mI3hhOwk8cGF0aCBmaWxsPSIjNjY5ZGY2IiBmaWxsLXJ1bGU9ImV2ZW5vZGQiIGQ9Ik0xNy4yNSAxNS45NXYyLjI1YTEuMTMgMS4xMyAwIDAgMS0xLjEzIDEuMTJoLTN2LTEuNWgyLjY0di0xLjVoLTIuNjR2LTEuNWgzYTEuMTQgMS4xNCAwIDAgMSAxLjEzIDEuMTN6Ii8+JiN4YTsJPHBhdGggZmlsbD0iI2FlY2JmYSIgZD0iTTkuNzYgOVY3LjVoLTNhMS4xMyAxLjEzIDAgMCAwLTEuMTMgMS4xMnYyLjI1QTEuMTMgMS4xMyAwIDAgMCA2Ljc2IDEyaDN2LTEuNUg3LjEzVjl6Ii8+JiN4YTsJPHBhdGggZmlsbD0iIzY2OWRmNiIgZmlsbC1ydWxlPSJldmVub2RkIiBkPSJNMTMuODggOC42MnYyLjI1QTEuMTMgMS4xMyAwIDAgMSAxMi43NiAxMmgtM3YtMS41aDIuNjJWOUg5Ljc2VjcuNWgzYTEuMTIgMS4xMiAwIDAgMSAxLjEyIDEuMTJ6Ii8+JiN4YTsJPGRlZnM+JiN4YTsJCTxwYXRoIGlkPSJCIiBkPSJNMi40NSAxOS41YTIuNDQgMi40NCAwIDEgMSAyLjQzLTIuNDQgMi40NCAyLjQ0IDAgMCAxLTIuNDMgMi40NHptMC0zLjM4YS45NC45NCAwIDEgMCAuOTMuOTQuOTQuOTQgMCAwIDAtLjkzLS45NHoiLz4mI3hhOwk8L2RlZnM+JiN4YTs8L3N2Zz4=;" vertex="1" parent="Gsc03Vrimq-xFtg_UPyv-206">
          <mxGeometry x="223.16104553808418" y="263.95424649699737" width="26.500125848288697" height="26.500125848288697" as="geometry" />
        </mxCell>
        <mxCell id="Gsc03Vrimq-xFtg_UPyv-52" value="" style="edgeStyle=orthogonalEdgeStyle;fontSize=12;html=1;endArrow=blockThin;endFill=1;rounded=0;strokeWidth=2;endSize=4;startSize=4;dashed=0;strokeColor=#4284F3;exitX=0.5;exitY=0;exitDx=0;exitDy=0;entryX=-0.061;entryY=0.6;entryDx=0;entryDy=0;entryPerimeter=0;elbow=vertical;" edge="1" parent="Gsc03Vrimq-xFtg_UPyv-206" source="Gsc03Vrimq-xFtg_UPyv-6" target="Gsc03Vrimq-xFtg_UPyv-39">
          <mxGeometry width="100" relative="1" as="geometry">
            <mxPoint x="305.0014341955921" y="296.0543322848155" as="sourcePoint" />
            <mxPoint x="339.0015956613206" y="296.0543322848155" as="targetPoint" />
          </mxGeometry>
        </mxCell>
        <mxCell id="Gsc03Vrimq-xFtg_UPyv-53" value="" style="sketch=0;pointerEvents=1;shadow=0;dashed=0;html=1;strokeColor=none;fillColor=#505050;labelPosition=center;verticalLabelPosition=bottom;verticalAlign=top;outlineConnect=0;align=center;shape=mxgraph.office.devices.tv;" vertex="1" parent="Gsc03Vrimq-xFtg_UPyv-206">
          <mxGeometry x="26.50011160131271" y="185.92183776570388" width="43.00020420665713" height="33.61567057477838" as="geometry" />
        </mxCell>
        <mxCell id="Gsc03Vrimq-xFtg_UPyv-54" value="" style="fontSize=12;html=1;endArrow=blockThin;endFill=1;rounded=0;strokeWidth=2;endSize=4;startSize=4;dashed=0;strokeColor=#4284F3;exitX=0.397;exitY=0.029;exitDx=0;exitDy=0;exitPerimeter=0;entryX=0.5;entryY=1;entryDx=0;entryDy=0;" edge="1" parent="Gsc03Vrimq-xFtg_UPyv-206" source="Gsc03Vrimq-xFtg_UPyv-39" target="Gsc03Vrimq-xFtg_UPyv-60">
          <mxGeometry width="100" relative="1" as="geometry">
            <mxPoint x="535.0025264637579" y="263.4692593651701" as="sourcePoint" />
            <mxPoint x="533.8439468429156" y="212.39405204460942" as="targetPoint" />
          </mxGeometry>
        </mxCell>
        <mxCell id="Gsc03Vrimq-xFtg_UPyv-55" value="" style="fontColor=#0066CC;verticalAlign=top;verticalLabelPosition=bottom;labelPosition=center;align=center;html=1;outlineConnect=0;fillColor=#4D4D4D;strokeColor=#6881B3;gradientColor=none;gradientDirection=north;strokeWidth=2;shape=mxgraph.networks.pc;" vertex="1" parent="Gsc03Vrimq-xFtg_UPyv-206">
          <mxGeometry x="28.43012076686682" y="242.50366981222018" width="67.07031851489519" height="51.752168525402716" as="geometry" />
        </mxCell>
        <mxCell id="Gsc03Vrimq-xFtg_UPyv-56" value="" style="shape=mxgraph.signs.tech.cell_phone;html=1;pointerEvents=1;fillColor=#000000;strokeColor=none;verticalLabelPosition=bottom;verticalAlign=top;align=center;" vertex="1" parent="Gsc03Vrimq-xFtg_UPyv-206">
          <mxGeometry x="95.50043928176228" y="171.40253550662456" width="26.000123473792684" height="62.64417119435706" as="geometry" />
        </mxCell>
        <mxCell id="Gsc03Vrimq-xFtg_UPyv-57" value="" style="verticalLabelPosition=bottom;sketch=0;aspect=fixed;html=1;verticalAlign=top;strokeColor=none;align=center;outlineConnect=0;shape=mxgraph.citrix.tablet_2;rotation=90;" vertex="1" parent="Gsc03Vrimq-xFtg_UPyv-206">
          <mxGeometry x="83.03038006183169" y="305.1478410065772" width="36.95017547525538" height="38.75018402344102" as="geometry" />
        </mxCell>
        <mxCell id="Gsc03Vrimq-xFtg_UPyv-58" value="" style="image;html=1;image=img/lib/clip_art/computers/Fujitsu_Tablet_128x128.png" vertex="1" parent="Gsc03Vrimq-xFtg_UPyv-206">
          <mxGeometry x="32.140138385627324" y="336.52044609665415" width="54.36025815520655" height="71.6871604232199" as="geometry" />
        </mxCell>
        <mxCell id="Gsc03Vrimq-xFtg_UPyv-59" value="&lt;font color=&quot;#4284f3&quot; style=&quot;font-size: 16px;&quot;&gt;Data Layer&lt;/font&gt;" style="text;strokeColor=none;fillColor=none;html=1;fontSize=24;fontStyle=1;verticalAlign=middle;align=center;movable=1;resizable=1;rotatable=1;deletable=1;editable=1;locked=0;connectable=1;" vertex="1" parent="Gsc03Vrimq-xFtg_UPyv-206">
          <mxGeometry x="630.6029804673958" y="99.02830997998281" width="110.00052238912289" height="45.46754360880754" as="geometry" />
        </mxCell>
        <mxCell id="Gsc03Vrimq-xFtg_UPyv-60" value="&lt;span style=&quot;font-weight: normal;&quot;&gt;Dataproc&lt;/span&gt;" style="sketch=0;html=1;verticalAlign=top;labelPosition=center;verticalLabelPosition=bottom;align=center;spacingTop=-6;fontSize=11;fontStyle=1;fontColor=#999999;shape=image;aspect=fixed;imageAspect=0;image=data:image/svg+xml,PHN2ZyB4bWxucz0iaHR0cDovL3d3dy53My5vcmcvMjAwMC9zdmciIHhtbG5zOnY9Imh0dHBzOi8vdmVjdGEuaW8vbmFubyIgd2lkdGg9IjE5LjM2MzAxMjMxMzg0Mjc3MyIgaGVpZ2h0PSIxNy45NzU1MjY4MDk2OTIzODMiIHZpZXdCb3g9IjAuMDAwNTYwMDI1NjI2MzI3ODQyNSAwLjYxOTYyOTc0MDcxNTAyNjkgMTkuMzYzMDEyMzEzODQyNzczIDE3Ljk3NTUyNjgwOTY5MjM4MyI+JiN4YTsJPHN0eWxlIHR5cGU9InRleHQvY3NzIj4mI3hhOwkuc3Qwe2ZpbGwtcnVsZTpldmVub2RkO30mI3hhOwkuc3Qxe2ZpbGw6I2FlY2JmYTt9JiN4YTsJLnN0MntmaWxsOiM0Mjg1ZjQ7fSYjeGE7CS5zdDN7ZmlsbDojNjY5ZGY2O30mI3hhOwk8L3N0eWxlPiYjeGE7CTxnIGNsYXNzPSJzdDAgc3QxIj4mI3hhOwkJPHBhdGggZD0iTTQuNjkgMTYuNGwxMC4xOS01Ljg5Ljk3IDEuNjktMTAuMTggNS44OHoiLz4mI3hhOwkJPHBhdGggZD0iTTcuNSA0LjR2MTAuMzVsLTEuODcgMS40MVY0LjR6Ii8+JiN4YTsJCTxwYXRoIGQ9Ik0xNy40OSAxMS4ybC0uOTcgMS42OC04Ljk2LTUuMTktLjI2LTIuMzZ6Ii8+JiN4YTsJPC9nPiYjeGE7CTxwYXRoIGNsYXNzPSJzdDAgc3QyIiBkPSJNMTIuMzkgOC4yNkw3LjMgNS4zM2wuMjYgMi4zNiAxLjUxLjg2YTQgNCAwIDAgMCAzLjMyLS4yOXoiLz4mI3hhOwk8cGF0aCBjbGFzcz0ic3QwIHN0MSIgZD0iTTYuMTMgNi4yOWgwYTMuNzggMy43OCAwIDAgMSA1LjE2NS01LjE2M0EzLjc4IDMuNzggMCAwIDEgOS40IDguMThhMy44IDMuOCAwIDAgMS0zLjI3LTEuODl6TTExIDMuNDlhMS44NCAxLjg0IDAgMCAwLTEuNTktLjkyQTEuODMgMS44MyAwIDAgMCA3LjU3IDQuNGExLjg0IDEuODQgMCAwIDAgMi43OTQgMS43MDZBMS44NCAxLjg0IDAgMCAwIDExLjI0IDQuNGExLjggMS44IDAgMCAwLS4yNC0uOTF6Ii8+JiN4YTsJPHBhdGggY2xhc3M9InN0MCBzdDIiIGQ9Ik01LjYzIDEwLjk0djUuMjJsMS44Ny0xLjQxdi0xLjYzYTMuMjkgMy4yOSAwIDAgMC0xLjg3LTIuMTh6bTUuNyAzLjg3bDQuNTItMi42MS0yLjIxLTEtMS4yNS44YTQuMjMgNC4yMyAwIDAgMC0xLjA2IDIuODZ6Ii8+JiN4YTsJPHBhdGggY2xhc3M9InN0MCBzdDEiIGQ9Ik0uNTEgMTYuN2gwYTMuNzcgMy43NyAwIDAgMSAxLjM4LTUuMTYgMy43MiAzLjcyIDAgMCAxIDIuODYtLjM4QTMuNzggMy43OCAwIDEgMSAuNTEgMTYuN3ptNC44NS0yLjgxQTEuNzkgMS43OSAwIDAgMCA0LjI1IDEzYTEuODMgMS44MyAwIDAgMC0yLjA2IDIuNjloMGMuMzI5LjU2Ni45MzQuOTE0IDEuNTg5LjkxM2ExLjgzIDEuODMgMCAwIDAgMS41ODUtLjkyYy4zMjYtLjU2OC4zMjQtMS4yNjctLjAwNC0xLjgzM3ptNi45NyAyLjQ3aDBhMy43OSAzLjc5IDAgMCAxIDAtMy43NyAzLjc5IDMuNzkgMCAwIDEgNS4xNi0xLjM5IDMuNzggMy43OCAwIDAgMS0xLjg5IDcuMDQ0IDMuNzggMy43OCAwIDAgMS0zLjI3LTEuODg0em00Ljg2LTIuODFhMiAyIDAgMCAwLS42Ny0uNjcgMS44NSAxLjg1IDAgMCAwLTIuNTEuNjggMS44NiAxLjg2IDAgMCAwIDAgMS44MyAxLjgzIDEuODMgMCAwIDAgMi4wNy44NSAxLjgyIDEuODIgMCAwIDAgMS4xMS0uODUgMS44OCAxLjg4IDAgMCAwIDAtMS44NHoiLz4mI3hhOwk8cGF0aCBjbGFzcz0ic3QwIHN0MyIgZD0iTTcuNDkgMTQuMTVsLTIuOCAyLjI1IDIuODYtMS42NWE0LjA3IDQuMDcgMCAwIDAtLjA2LS42ek04LjE1IDhsLS41OS0zLjZ2My4yOWEzLjQ3IDMuNDcgMCAwIDAgLjU5LjI3em01LjE1IDMuNDdsMy4yMiAxLjQxLTIuODYtMS42NGExLjY5IDEuNjkgMCAwIDAtLjM2LjIzeiIvPiYjeGE7PC9zdmc+;" vertex="1" parent="Gsc03Vrimq-xFtg_UPyv-206">
          <mxGeometry x="514.0024267349254" y="168.52292441140017" width="42.000199457665104" height="40.00018995968105" as="geometry" />
        </mxCell>
        <mxCell id="Gsc03Vrimq-xFtg_UPyv-61" value="&lt;span style=&quot;font-weight: normal;&quot;&gt;Dataproc&lt;/span&gt;" style="sketch=0;html=1;verticalAlign=top;labelPosition=center;verticalLabelPosition=bottom;align=center;spacingTop=-6;fontSize=11;fontStyle=1;fontColor=#999999;shape=image;aspect=fixed;imageAspect=0;image=data:image/svg+xml,PHN2ZyB4bWxucz0iaHR0cDovL3d3dy53My5vcmcvMjAwMC9zdmciIHhtbG5zOnY9Imh0dHBzOi8vdmVjdGEuaW8vbmFubyIgd2lkdGg9IjE5LjM2MzAxMjMxMzg0Mjc3MyIgaGVpZ2h0PSIxNy45NzU1MjY4MDk2OTIzODMiIHZpZXdCb3g9IjAuMDAwNTYwMDI1NjI2MzI3ODQyNSAwLjYxOTYyOTc0MDcxNTAyNjkgMTkuMzYzMDEyMzEzODQyNzczIDE3Ljk3NTUyNjgwOTY5MjM4MyI+JiN4YTsJPHN0eWxlIHR5cGU9InRleHQvY3NzIj4mI3hhOwkuc3Qwe2ZpbGwtcnVsZTpldmVub2RkO30mI3hhOwkuc3Qxe2ZpbGw6I2FlY2JmYTt9JiN4YTsJLnN0MntmaWxsOiM0Mjg1ZjQ7fSYjeGE7CS5zdDN7ZmlsbDojNjY5ZGY2O30mI3hhOwk8L3N0eWxlPiYjeGE7CTxnIGNsYXNzPSJzdDAgc3QxIj4mI3hhOwkJPHBhdGggZD0iTTQuNjkgMTYuNGwxMC4xOS01Ljg5Ljk3IDEuNjktMTAuMTggNS44OHoiLz4mI3hhOwkJPHBhdGggZD0iTTcuNSA0LjR2MTAuMzVsLTEuODcgMS40MVY0LjR6Ii8+JiN4YTsJCTxwYXRoIGQ9Ik0xNy40OSAxMS4ybC0uOTcgMS42OC04Ljk2LTUuMTktLjI2LTIuMzZ6Ii8+JiN4YTsJPC9nPiYjeGE7CTxwYXRoIGNsYXNzPSJzdDAgc3QyIiBkPSJNMTIuMzkgOC4yNkw3LjMgNS4zM2wuMjYgMi4zNiAxLjUxLjg2YTQgNCAwIDAgMCAzLjMyLS4yOXoiLz4mI3hhOwk8cGF0aCBjbGFzcz0ic3QwIHN0MSIgZD0iTTYuMTMgNi4yOWgwYTMuNzggMy43OCAwIDAgMSA1LjE2NS01LjE2M0EzLjc4IDMuNzggMCAwIDEgOS40IDguMThhMy44IDMuOCAwIDAgMS0zLjI3LTEuODl6TTExIDMuNDlhMS44NCAxLjg0IDAgMCAwLTEuNTktLjkyQTEuODMgMS44MyAwIDAgMCA3LjU3IDQuNGExLjg0IDEuODQgMCAwIDAgMi43OTQgMS43MDZBMS44NCAxLjg0IDAgMCAwIDExLjI0IDQuNGExLjggMS44IDAgMCAwLS4yNC0uOTF6Ii8+JiN4YTsJPHBhdGggY2xhc3M9InN0MCBzdDIiIGQ9Ik01LjYzIDEwLjk0djUuMjJsMS44Ny0xLjQxdi0xLjYzYTMuMjkgMy4yOSAwIDAgMC0xLjg3LTIuMTh6bTUuNyAzLjg3bDQuNTItMi42MS0yLjIxLTEtMS4yNS44YTQuMjMgNC4yMyAwIDAgMC0xLjA2IDIuODZ6Ii8+JiN4YTsJPHBhdGggY2xhc3M9InN0MCBzdDEiIGQ9Ik0uNTEgMTYuN2gwYTMuNzcgMy43NyAwIDAgMSAxLjM4LTUuMTYgMy43MiAzLjcyIDAgMCAxIDIuODYtLjM4QTMuNzggMy43OCAwIDEgMSAuNTEgMTYuN3ptNC44NS0yLjgxQTEuNzkgMS43OSAwIDAgMCA0LjI1IDEzYTEuODMgMS44MyAwIDAgMC0yLjA2IDIuNjloMGMuMzI5LjU2Ni45MzQuOTE0IDEuNTg5LjkxM2ExLjgzIDEuODMgMCAwIDAgMS41ODUtLjkyYy4zMjYtLjU2OC4zMjQtMS4yNjctLjAwNC0xLjgzM3ptNi45NyAyLjQ3aDBhMy43OSAzLjc5IDAgMCAxIDAtMy43NyAzLjc5IDMuNzkgMCAwIDEgNS4xNi0xLjM5IDMuNzggMy43OCAwIDAgMS0xLjg5IDcuMDQ0IDMuNzggMy43OCAwIDAgMS0zLjI3LTEuODg0em00Ljg2LTIuODFhMiAyIDAgMCAwLS42Ny0uNjcgMS44NSAxLjg1IDAgMCAwLTIuNTEuNjggMS44NiAxLjg2IDAgMCAwIDAgMS44MyAxLjgzIDEuODMgMCAwIDAgMi4wNy44NSAxLjgyIDEuODIgMCAwIDAgMS4xMS0uODUgMS44OCAxLjg4IDAgMCAwIDAtMS44NHoiLz4mI3hhOwk8cGF0aCBjbGFzcz0ic3QwIHN0MyIgZD0iTTcuNDkgMTQuMTVsLTIuOCAyLjI1IDIuODYtMS42NWE0LjA3IDQuMDcgMCAwIDAtLjA2LS42ek04LjE1IDhsLS41OS0zLjZ2My4yOWEzLjQ3IDMuNDcgMCAwIDAgLjU5LjI3em01LjE1IDMuNDdsMy4yMiAxLjQxLTIuODYtMS42NGExLjY5IDEuNjkgMCAwIDAtLjM2LjIzeiIvPiYjeGE7PC9zdmc+;" vertex="1" parent="Gsc03Vrimq-xFtg_UPyv-206">
          <mxGeometry x="602.7128480180079" y="281.9088742731865" width="42.000199457665104" height="40.00018995968105" as="geometry" />
        </mxCell>
        <mxCell id="Gsc03Vrimq-xFtg_UPyv-62" value="&lt;span style=&quot;font-weight: normal;&quot;&gt;Dataproc&lt;/span&gt;" style="sketch=0;html=1;verticalAlign=top;labelPosition=center;verticalLabelPosition=bottom;align=center;spacingTop=-6;fontSize=11;fontStyle=1;fontColor=#999999;shape=image;aspect=fixed;imageAspect=0;image=data:image/svg+xml,PHN2ZyB4bWxucz0iaHR0cDovL3d3dy53My5vcmcvMjAwMC9zdmciIHhtbG5zOnY9Imh0dHBzOi8vdmVjdGEuaW8vbmFubyIgd2lkdGg9IjE5LjM2MzAxMjMxMzg0Mjc3MyIgaGVpZ2h0PSIxNy45NzU1MjY4MDk2OTIzODMiIHZpZXdCb3g9IjAuMDAwNTYwMDI1NjI2MzI3ODQyNSAwLjYxOTYyOTc0MDcxNTAyNjkgMTkuMzYzMDEyMzEzODQyNzczIDE3Ljk3NTUyNjgwOTY5MjM4MyI+JiN4YTsJPHN0eWxlIHR5cGU9InRleHQvY3NzIj4mI3hhOwkuc3Qwe2ZpbGwtcnVsZTpldmVub2RkO30mI3hhOwkuc3Qxe2ZpbGw6I2FlY2JmYTt9JiN4YTsJLnN0MntmaWxsOiM0Mjg1ZjQ7fSYjeGE7CS5zdDN7ZmlsbDojNjY5ZGY2O30mI3hhOwk8L3N0eWxlPiYjeGE7CTxnIGNsYXNzPSJzdDAgc3QxIj4mI3hhOwkJPHBhdGggZD0iTTQuNjkgMTYuNGwxMC4xOS01Ljg5Ljk3IDEuNjktMTAuMTggNS44OHoiLz4mI3hhOwkJPHBhdGggZD0iTTcuNSA0LjR2MTAuMzVsLTEuODcgMS40MVY0LjR6Ii8+JiN4YTsJCTxwYXRoIGQ9Ik0xNy40OSAxMS4ybC0uOTcgMS42OC04Ljk2LTUuMTktLjI2LTIuMzZ6Ii8+JiN4YTsJPC9nPiYjeGE7CTxwYXRoIGNsYXNzPSJzdDAgc3QyIiBkPSJNMTIuMzkgOC4yNkw3LjMgNS4zM2wuMjYgMi4zNiAxLjUxLjg2YTQgNCAwIDAgMCAzLjMyLS4yOXoiLz4mI3hhOwk8cGF0aCBjbGFzcz0ic3QwIHN0MSIgZD0iTTYuMTMgNi4yOWgwYTMuNzggMy43OCAwIDAgMSA1LjE2NS01LjE2M0EzLjc4IDMuNzggMCAwIDEgOS40IDguMThhMy44IDMuOCAwIDAgMS0zLjI3LTEuODl6TTExIDMuNDlhMS44NCAxLjg0IDAgMCAwLTEuNTktLjkyQTEuODMgMS44MyAwIDAgMCA3LjU3IDQuNGExLjg0IDEuODQgMCAwIDAgMi43OTQgMS43MDZBMS44NCAxLjg0IDAgMCAwIDExLjI0IDQuNGExLjggMS44IDAgMCAwLS4yNC0uOTF6Ii8+JiN4YTsJPHBhdGggY2xhc3M9InN0MCBzdDIiIGQ9Ik01LjYzIDEwLjk0djUuMjJsMS44Ny0xLjQxdi0xLjYzYTMuMjkgMy4yOSAwIDAgMC0xLjg3LTIuMTh6bTUuNyAzLjg3bDQuNTItMi42MS0yLjIxLTEtMS4yNS44YTQuMjMgNC4yMyAwIDAgMC0xLjA2IDIuODZ6Ii8+JiN4YTsJPHBhdGggY2xhc3M9InN0MCBzdDEiIGQ9Ik0uNTEgMTYuN2gwYTMuNzcgMy43NyAwIDAgMSAxLjM4LTUuMTYgMy43MiAzLjcyIDAgMCAxIDIuODYtLjM4QTMuNzggMy43OCAwIDEgMSAuNTEgMTYuN3ptNC44NS0yLjgxQTEuNzkgMS43OSAwIDAgMCA0LjI1IDEzYTEuODMgMS44MyAwIDAgMC0yLjA2IDIuNjloMGMuMzI5LjU2Ni45MzQuOTE0IDEuNTg5LjkxM2ExLjgzIDEuODMgMCAwIDAgMS41ODUtLjkyYy4zMjYtLjU2OC4zMjQtMS4yNjctLjAwNC0xLjgzM3ptNi45NyAyLjQ3aDBhMy43OSAzLjc5IDAgMCAxIDAtMy43NyAzLjc5IDMuNzkgMCAwIDEgNS4xNi0xLjM5IDMuNzggMy43OCAwIDAgMS0xLjg5IDcuMDQ0IDMuNzggMy43OCAwIDAgMS0zLjI3LTEuODg0em00Ljg2LTIuODFhMiAyIDAgMCAwLS42Ny0uNjcgMS44NSAxLjg1IDAgMCAwLTIuNTEuNjggMS44NiAxLjg2IDAgMCAwIDAgMS44MyAxLjgzIDEuODMgMCAwIDAgMi4wNy44NSAxLjgyIDEuODIgMCAwIDAgMS4xMS0uODUgMS44OCAxLjg4IDAgMCAwIDAtMS44NHoiLz4mI3hhOwk8cGF0aCBjbGFzcz0ic3QwIHN0MyIgZD0iTTcuNDkgMTQuMTVsLTIuOCAyLjI1IDIuODYtMS42NWE0LjA3IDQuMDcgMCAwIDAtLjA2LS42ek04LjE1IDhsLS41OS0zLjZ2My4yOWEzLjQ3IDMuNDcgMCAwIDAgLjU5LjI3em01LjE1IDMuNDdsMy4yMiAxLjQxLTIuODYtMS42NGExLjY5IDEuNjkgMCAwIDAtLjM2LjIzeiIvPiYjeGE7PC9zdmc+;" vertex="1" parent="Gsc03Vrimq-xFtg_UPyv-206">
          <mxGeometry x="814.0038514325331" y="238.8157468306168" width="42.000199457665104" height="40.00018995968105" as="geometry" />
        </mxCell>
        <mxCell id="Gsc03Vrimq-xFtg_UPyv-63" value="Ai Plataform" style="editableCssRules=.*;html=1;shape=image;verticalLabelPosition=bottom;labelBackgroundColor=#ffffff;verticalAlign=top;aspect=fixed;imageAspect=0;image=data:image/svg+xml,PHN2ZyB4bWxucz0iaHR0cDovL3d3dy53My5vcmcvMjAwMC9zdmciIHhtbG5zOnY9Imh0dHBzOi8vdmVjdGEuaW8vbmFubyIgd2lkdGg9IjIwIiBoZWlnaHQ9IjE3LjUiIGZpbGwtcnVsZT0iZXZlbm9kZCIgdmlld0JveD0iMCAwIDIwIDE3LjUiPiYjeGE7CTxzdHlsZSB0eXBlPSJ0ZXh0L2NzcyI+JiN4YTsJLnN0MHtmaWxsOiM0Mjg1ZjQ7fSYjeGE7CS5zdDF7ZmlsbDojNjY5ZGY2O30mI3hhOwk8L3N0eWxlPiYjeGE7CTxwYXRoIGNsYXNzPSJzdDAiIGQ9Ik0xOC45MSAxMC42M0wyMCA4Ljc1IDE3LjgyIDVoLTMuMDdsLTEuMDYtMS44NkgxMi41VjEuODhoMS45NGwxLjA2IDEuODdoMS41OUwxNC45IDBoLTQuMjd2NWgxLjczbC43MyAxLjI1aC0yLjQ2djIuNWgyLjI2bDEuMDUtMS44N2gyLjgxbC43MiAxLjI1aC0yLjhMMTMuNjIgMTBoLTIuOTl2NC4zOGgzLjRsLS43MiAxLjI1aC0yLjY4djEuODdoNC4yN2wzLjI4LTUuNjJoLTIuMDlsLS43MyAxLjI1SDEyLjV2LTEuMjVoMi4xNGwuNzQtMS4yNXoiLz4mI3hhOwk8cGF0aCBjbGFzcz0ic3QxIiBkPSJNMS4wOSAxMC42M0wwIDguNzUgMi4xOCA1aDMuMDdsMS4wNi0xLjg2SDcuNVYxLjg4SDUuNTZMNC41IDMuNzVIMi45MUw1LjEgMGg0LjI4djVINy42NGwtLjczIDEuMjVoMi40N3YyLjVINy4xMUw2LjA2IDYuODhIMy4yNWwtLjcyIDEuMjVoMi44TDYuMzggMTBoM3Y0LjM4SDUuOTdsLjcyIDEuMjVoMi42OXYxLjg3SDUuMWwtMy4yOC01LjYyaDIuMDlsLjczIDEuMjVINy41di0xLjI1SDUuMzZsLS43NC0xLjI1eiIvPiYjeGE7PC9zdmc+;" vertex="1" parent="Gsc03Vrimq-xFtg_UPyv-206">
          <mxGeometry x="947.5044854229689" y="294.08407206176713" width="40.00018995968105" height="36.00017096371295" as="geometry" />
        </mxCell>
        <mxCell id="Gsc03Vrimq-xFtg_UPyv-64" value="Ai Hub" style="editableCssRules=.*;html=1;shape=image;verticalLabelPosition=bottom;labelBackgroundColor=#ffffff;verticalAlign=top;aspect=fixed;imageAspect=0;image=data:image/svg+xml,PHN2ZyB4bWxucz0iaHR0cDovL3d3dy53My5vcmcvMjAwMC9zdmciIHhtbG5zOnY9Imh0dHBzOi8vdmVjdGEuaW8vbmFubyIgd2lkdGg9IjM2Mi4yMjI0NzgzNzUzNTMxNSIgaGVpZ2h0PSIzNzcuMzU5NDg0NzI1NTkyNSIgdmlld0JveD0iNjcuMzQ3OTk5NTcyNzUzOSAxMDguNjg4MDAzNTQwMDM5MDYgOTUuODM4MDA1MDY1OTE3OTcgOTkuODQzMDAyMzE5MzM1OTQiPiYjeGE7PHN0eWxlIHR5cGU9InRleHQvY3NzIj4mI3hhOwkuc3Qwe2ZpbGw6IzY2OWRmNjt9JiN4YTsJLnN0MXtmaWxsOiNhZWNiZmE7fSYjeGE7CS5zdDJ7ZmlsbDojNDI4NWY0O30mI3hhOzwvc3R5bGU+JiN4YTsJPHBhdGggY2xhc3M9InN0MCIgZD0iTTk2LjE5OSAxNzMuODAxdjI1Ljk5bDE5LjE4MSA4Ljc0di0yNS45MjZ6bTQuNzcxIDguNjYybDkuNjczIDQuNDA4djEyLjk4NWwtOS42NzMtNC4zNzV6bS00Ljc3MS0zOC45Njl2MjEuNjg2bDE5LjE4MSA4LjczMnYtMjEuNjg0bC00LjczNy0yLjA5NXYxNS4wNmwtOS42NzMtNC4zOTV2LTE1LjE3ek02Ny4zNDggMTMwLjMydjU2LjU1bDE5LjExNCA4Ljc4M3YtNTYuNjU4bC00LjczNC0yLjEyN3Y0OS45MDhsLTkuNTUzLTQuMzgxVjEzMi40OXoiLz4mI3hhOwk8cGF0aCBjbGFzcz0ic3QxIiBkPSJNOTYuMTE2IDExNy4zMTZsMTkuMjY0LTguNjI4IDQ3LjgwNiAyMS43NjMtMTguNzkgOC42MzJ6bTE5LjI2NCAzNC45MTJsLTE5LjE4MS04Ljc0NiAxOS4xODEtOC43MzkgMTkuMjE1IDguNzU5ek04Ni40NjIgMTM5LjA2bC0xOS4xMTQtOC43NDYgMTkuMTE0LTguNzM5IDE5LjM2MiA4Ljc1OXoiLz4mI3hhOwk8cGF0aCBjbGFzcz0ic3QyIiBkPSJNMTQ0LjM5NiAxNjAuNjEzdi0yMS41M2wxOC43OS04LjYzMnYyMS42NTd6TTExNS4zOCAxODIuNTNsNDcuODA2LTIxLjcxMnYyNS45MDRsLTQ3LjgwNiAyMS42MjZ6bTAtOC42MTh2LTIxLjY4NGwxOS4yMTUtOC43MzJ2MjEuNTQ1eiIvPiYjeGE7PC9zdmc+;" vertex="1" parent="Gsc03Vrimq-xFtg_UPyv-206">
          <mxGeometry x="989.2346835984063" y="355.81889238394814" width="38.000180461697" height="40.00018995968105" as="geometry" />
        </mxCell>
      </root>
    </mxGraphModel>
  </diagram>
</mxfile>
